<?xml version="1.0" encoding="UTF-8"?>
<svg xmlns="http://www.w3.org/2000/svg" xmlns:xlink="http://www.w3.org/1999/xlink" version="1.2" width="1000" height="1000" viewBox="0 0 1000 1000" xml:space="preserve">
<desc>Created with Fabric.js 3.5.0</desc>
<defs>
</defs>
<rect x="0" y="0" width="100%" height="100%" fill="#ffffff"></rect>
<g transform="matrix(2.8142 0 0 2.8142 499.9919 499.9933)" id="942298">
<g style="" vector-effect="non-scaling-stroke">
		<g transform="matrix(1 0 0 1 0 0)">
<path style="stroke: none; stroke-width: 1; stroke-dasharray: none; stroke-linecap: butt; stroke-dashoffset: 0; stroke-linejoin: miter; stroke-miterlimit: 4; is-custom-font: none; font-file-url: none; fill: rgb(254,254,254); fill-rule: nonzero; opacity: 1;" transform=" translate(-194.5, -161.5)" d="M 0 0 C 128.37 0 256.74 0 389 0 C 389 106.59 389 213.18 389 323 C 260.63 323 132.26 323 0 323 C 0 216.41 0 109.82 0 0 Z" stroke-linecap="round"></path>
</g>
		<g transform="matrix(1 0 0 1 -4.5184 4.5566)">
<path style="stroke: none; stroke-width: 1; stroke-dasharray: none; stroke-linecap: butt; stroke-dashoffset: 0; stroke-linejoin: miter; stroke-miterlimit: 4; is-custom-font: none; font-file-url: none; fill: rgb(30,108,155); fill-rule: nonzero; opacity: 1;" transform=" translate(-14.9815, -124.0566)" d="M 0 0 C 8.58 0 17.16 0 26 0 C 26 0.66 26 1.32 26 2 C 26.64066406 1.97679687 27.28132812 1.95359375 27.94140625 1.9296875 C 28.80636719 1.91164062 29.67132813 1.89359375 30.5625 1.875 C 31.83287109 1.84019531 31.83287109 1.84019531 33.12890625 1.8046875 C 36.6244006 2.04247623 39.64512397 2.99822177 43 4 C 46.81773885 4.78716265 50.64474423 5.50368452 54.4765625 6.21875 C 57.51922343 6.89339766 60.16125472 7.73833543 63 9 C 63 9.66 63 10.32 63 11 C 63.56976563 11.12632813 64.13953125 11.25265625 64.7265625 11.3828125 C 68.67454308 12.45460104 72.29458261 14.28931079 76 16 C 77.0725 16.474375 78.145 16.94875 79.25 17.4375 C 82.39711376 19.22563282 84.48120584 21.41662137 87 24 C 89.33474493 25.53751495 91.54253343 26.81163141 94.125 27.875 C 96 29 96 29 97.25 31.1875 C 98.94252985 33.90763725 100.3950565 35.3337052 102.8125 37.375 C 108.08329032 41.83191828 112.88368121 46.76736242 116 53 C 116 53.99 116 54.98 116 56 C 116.66 56 117.32 56 118 56 C 118.391875 57.051875 118.78375 58.10375 119.1875 59.1875 C 120.4231216 62.13992276 121.28695437 63.28028101 123.6875 65.625 C 126 68 126 68 126.3125 70.8125 C 126.1578125 71.8953125 126.1578125 71.8953125 126 73 C 126.66 73 127.32 73 128 73 C 130.73732304 78.01842557 132.53026409 82.38366541 133.5078125 88.01953125 C 133.9562698 90.30018969 133.9562698 90.30018969 136 93 C 136.43149167 95.55510751 136.78462399 98.05404282 137.0625 100.625 C 137.19681898 105.18412061 137.19681898 105.18412061 139 109 C 139.08783542 111.21855264 139.10694609 113.43988496 139.09765625 115.66015625 C 139.09553383 116.65685585 139.09553383 116.65685585 139.09336853 117.6736908 C 139.08775518 119.80333899 139.07520054 121.93288339 139.0625 124.0625 C 139.05748671 125.50325369 139.05292351 126.94400903 139.04882812 128.38476562 C 139.03778145 131.92321102 139.02050792 135.46159539 139 139 C 138.34 139 137.68 139 137 139 C 137.02320313 139.73605469 137.04640625 140.47210938 137.0703125 141.23046875 C 137.08835937 142.20628906 137.10640625 143.18210938 137.125 144.1875 C 137.14820313 145.15042969 137.17140625 146.11335937 137.1953125 147.10546875 C 136.97452391 150.37755561 136.40318706 153.59681294 134 156 C 133.60545777 157.84599688 133.25823134 159.70225822 132.9375 161.5625 C 132.76089844 162.57441406 132.58429688 163.58632812 132.40234375 164.62890625 C 132.26957031 165.41136719 132.13679687 166.19382813 132 167 C 131.34 167 130.68 167 130 167 C 129.87496094 167.56460938 129.74992188 168.12921875 129.62109375 168.7109375 C 128.96223887 171.13916996 128.08149421 173.32553381 127.0625 175.625 C 126.72347656 176.40101563 126.38445312 177.17703125 126.03515625 177.9765625 C 125 180 125 180 123 182 C 122.69578125 182.76699219 122.3915625 183.53398437 122.078125 184.32421875 C 120.18070586 189.03339307 116.96995188 192.91319647 114 197 C 113.48953125 197.73089844 112.9790625 198.46179688 112.453125 199.21484375 C 109.50436701 203.34469029 106.44356306 206.5743852 102.41796875 209.67578125 C 100.71706092 211.0529617 100.71706092 211.0529617 100 214 C 99.34 214 98.68 214 98 214 C 98 214.66 98 215.32 98 216 C 96.9275 216.556875 95.855 217.11375 94.75 217.6875 C 92.15774452 219.1547166 90.90675851 220.11655187 89 222.5 C 86.42946418 225.71316977 83.594381 227.12111902 80 229 C 79.195625 229.495 78.39125 229.99 77.5625 230.5 C 69.13740419 235.4317634 59.67459454 240.39051535 50 242 C 50 242.66 50 243.32 50 244 C 47.69 244 45.38 244 43 244 C 43 244.66 43 245.32 43 246 C 39.7 246 36.4 246 33 246 C 33 246.66 33 247.32 33 248 C 28.17619198 248.0246519 23.35242033 248.04283693 18.52856445 248.05493164 C 16.88630536 248.05997174 15.24405077 248.06680378 13.60180664 248.07543945 C 11.24624521 248.08751926 8.89074291 248.09323139 6.53515625 248.09765625 C 5.79660904 248.10281754 5.05806183 248.10797882 4.2971344 248.11329651 C 2.53101912 248.1134925 0.76502854 248.06194719 -1 248 C -1.33 247.67 -1.66 247.34 -2 247 C -3.32781878 246.79395915 -4.66295895 246.6337041 -6 246.5 C -9.88888889 246.11111111 -9.88888889 246.11111111 -11 245 C -12.5778125 244.7834375 -12.5778125 244.7834375 -14.1875 244.5625 C -17.68166337 244.0469677 -20.69384149 243.20957019 -24 242 C -24 241.34 -24 240.68 -24 240 C -26.22889496 239.94571027 -28.45817471 239.90707662 -30.6875 239.875 C -32.54955078 239.84019531 -32.54955078 239.84019531 -34.44921875 239.8046875 C -37.89778616 239.80452713 -37.89778616 239.80452713 -40.5 241 C -43.8541378 242.34165512 -46.71646724 242.19221557 -50.3125 242.125 C -51.56675781 242.10695313 -52.82101563 242.08890625 -54.11328125 242.0703125 C -55.06589844 242.04710937 -56.01851562 242.02390625 -57 242 C -57 241.34 -57 240.68 -57 240 C -57.7425 239.79375 -58.485 239.5875 -59.25 239.375 C -63.0101917 237.49490415 -64.11909467 235.76181066 -66 232 C -66.59874969 228.67720893 -66.80835247 225.36752086 -67 222 C -67.46383734 217.74815775 -67.77115426 215.80769194 -71 213 C -71 212.34 -71 211.68 -71 211 C -71.598125 210.91234375 -72.19625 210.8246875 -72.8125 210.734375 C -75.59755942 209.79939077 -76.34364324 208.64451575 -78 206.25 C -78.51304688 205.528125 -79.02609375 204.80625 -79.5546875 204.0625 C -80.03164062 203.381875 -80.50859375 202.70125 -81 202 C -82.93109831 199.5009316 -84.79617595 197.19764757 -87.0625 195 C -91.71644239 190.19593044 -94.69302477 183.53487615 -96 177 C -96.66 177 -97.32 177 -98 177 C -98 176.01 -98 175.02 -98 174 C -98.66 174 -99.32 174 -100 174 C -100.25394531 173.10539063 -100.50789063 172.21078125 -100.76953125 171.2890625 C -101.11371094 170.07992187 -101.45789063 168.87078125 -101.8125 167.625 C -101.99337158 166.98522217 -102.17424316 166.34544434 -102.3605957 165.6862793 C -103.39800327 162.03498907 -104.51009708 158.42048222 -105.6875 154.8125 C -107.07825093 150.2869213 -107.51132835 145.86721152 -107.7890625 141.15234375 C -107.76811816 139.02029296 -107.76811816 139.02029296 -109 138 C -109.09983058 136.01242972 -109.13080753 134.0213248 -109.1328125 132.03125 C -109.13410156 130.82082031 -109.13539062 129.61039063 -109.13671875 128.36328125 C -109.13285156 127.08839844 -109.12898438 125.81351562 -109.125 124.5 C -109.12886719 123.22511719 -109.13273437 121.95023437 -109.13671875 120.63671875 C -109.13542969 119.42628906 -109.13414063 118.21585937 -109.1328125 116.96875 C -109.13168457 115.84919922 -109.13055664 114.72964844 -109.12939453 113.57617188 C -109 111 -109 111 -108 110 C -107.76365179 108.64491208 -107.58065225 107.28041294 -107.421875 105.9140625 C -106.31129759 97.11435492 -105.31686547 89.26364294 -101.12109375 81.3203125 C -99.95675225 78.91049071 -99.45534587 76.81549615 -99 74.1875 C -98.16675799 69.71973567 -96.02612328 67.39516271 -93 64 C -92.505 62.824375 -92.01 61.64875 -91.5 60.4375 C -89.85034297 56.65703598 -88.039394 54.74286776 -85 52 C -84.319375 51.21625 -83.63875 50.4325 -82.9375 49.625 C -81 48 -81 48 -78.8125 48.1875 C -77 49 -77 49 -76 50 C -76.17635452 52.69082872 -76.61835921 55.32851446 -77 58 C -77.66 58 -78.32 58 -79 58 C -79 58.66 -79 59.32 -79 60 C -79.66 60 -80.32 60 -81 60 C -81.0928125 61.2684375 -81.0928125 61.2684375 -81.1875 62.5625 C -82 66 -82 66 -84.31640625 69.05859375 C -87.58840831 73.49493842 -89.1049534 78.28453835 -90.75 83.5 C -91.05292969 84.41136719 -91.35585937 85.32273437 -91.66796875 86.26171875 C -93.26479125 91.17993206 -94.46292365 95.8553739 -95 101 C -92.36 101 -89.72 101 -87 101 C -87 100.34 -87 99.68 -87 99 C -82.62546599 98.51651802 -78.25029531 98.03903926 -73.875 97.5625 C -72.65683594 97.42779297 -71.43867187 97.29308594 -70.18359375 97.15429688 C -62.70277687 96.34288552 -55.25166381 95.72452352 -47.73486328 95.35913086 C -44.85768183 95.26369779 -44.85768183 95.26369779 -43 93 C -42.7525 92.2575 -42.505 91.515 -42.25 90.75 C -40.47913598 86.85409915 -38.77923984 84.0400049 -35 82 C -31.0185072 81.4276078 -27.18133699 81.24934228 -23.16796875 81.203125 C -21.59982422 81.10257813 -21.59982422 81.10257813 -20 81 C -19.67 80.34 -19.34 79.68 -19 79 C -18.34 79 -17.68 79 -17 79 C -16.773125 78.46375 -16.54625 77.9275 -16.3125 77.375 C -14.54429911 74.17539839 -12.46329797 71.70962777 -10 69 C -9.34 69 -8.68 69 -8 69 C -8 68.34 -8 67.68 -8 67 C -7.34 67 -6.68 67 -6 67 C -6 66.34 -6 65.68 -6 65 C -5.34 65 -4.68 65 -4 65 C -4 64.34 -4 63.68 -4 63 C -3.34 63 -2.68 63 -2 63 C -2 58.38 -2 53.76 -2 49 C -2.969375 48.7525 -3.93875 48.505 -4.9375 48.25 C -8.75024761 47.16946424 -12.24799272 45.60323279 -15.84375 43.953125 C -18.50611623 42.77628196 -21.21932226 41.85559315 -24 41 C -24 40.34 -24 39.68 -24 39 C -24.87011719 38.81824219 -24.87011719 38.81824219 -25.7578125 38.6328125 C -29.21945768 37.89021535 -32.58255075 37.14211038 -35.9375 36 C -43.75823111 33.44629188 -50.06395714 32.35465238 -58 35 C -58 35.66 -58 36.32 -58 37 C -59.57421875 38.5078125 -59.57421875 38.5078125 -61.6875 40.125 C -62.37199219 40.66382813 -63.05648437 41.20265625 -63.76171875 41.7578125 C -66.37932659 43.21051633 -68.05175015 43.23751225 -71 43 C -71.55684459 40.15390541 -71.72427996 38.76498767 -71 36 C -66.78389781 30.11727621 -60.95848744 22.89626131 -53.6875 21.25 C -52.800625 21.1675 -51.91375 21.085 -51 21 C -51 20.01 -51 19.02 -51 18 C -40.38393261 12.97032612 -40.38393261 12.97032612 -35.875 11.8125 C -34.92625 11.544375 -33.9775 11.27625 -33 11 C -32.67 10.34 -32.34 9.68 -32 9 C -29.50248063 8.07234995 -27.04923166 7.25703071 -24.5 6.5 C -23.77111572 6.27932861 -23.04223145 6.05865723 -22.29125977 5.83129883 C -14.84910468 3.60734931 -7.8327071 1.66669331 0 2 C 0 1.34 0 0.68 0 0 Z" stroke-linecap="round"></path>
</g>
		<g transform="matrix(1 0 0 1 -17.0721 42.471)">
<path style="stroke: none; stroke-width: 1; stroke-dasharray: none; stroke-linecap: butt; stroke-dashoffset: 0; stroke-linejoin: miter; stroke-miterlimit: 4; is-custom-font: none; font-file-url: none; fill: rgb(253,253,253); fill-rule: nonzero; opacity: 1;" transform=" translate(-14.4279, -54.971)" d="M 0 0 C 19.01560988 -0.67378145 38.49130035 4.55281025 54.875 14.25 C 57.82767564 16.12813964 57.82767564 16.12813964 60.8125 16.5 C 63 17 63 17 64.0625 18.5859375 C 65.28643399 21.73756752 65.72286878 24.77825781 66.1875 28.125 C 66.36667969 29.36507812 66.54585938 30.60515625 66.73046875 31.8828125 C 67 35 67 35 66 37 C 65.34 37 64.68 37 64 37 C 64 37.66 64 38.32 64 39 C 63.34 39 62.68 39 62 39 C 62 39.66 62 40.32 62 41 C 61.34 41 60.68 41 60 41 C 59.73195557 41.59474121 59.46391113 42.18948242 59.18774414 42.80224609 C 57.99020301 45.01812796 56.79681017 46.42079528 54.99609375 48.1640625 C 54.42052734 48.72867188 53.84496094 49.29328125 53.25195312 49.875 C 52.65318359 50.4525 52.05441406 51.03 51.4375 51.625 C 50.24650616 52.78160151 49.05759995 53.94035778 47.87109375 55.1015625 C 47.34443115 55.61025879 46.81776855 56.11895508 46.27514648 56.64306641 C 44.8835783 57.99400105 44.8835783 57.99400105 44 60 C 43.09378906 59.96519531 42.18757813 59.93039063 41.25390625 59.89453125 C 29.56386962 59.474323 29.56386962 59.474323 19.32421875 64.41796875 C 17.15572363 67.00864876 16.99760029 68.92587562 17.10546875 72.2578125 C 17.31738184 82.24800122 17.31738184 82.24800122 14.81152344 85.58056641 C 11.4576062 88.78021677 6.75150034 93 2 93 C 2 93.66 2 94.32 2 95 C -0.0944968 96.63429751 -2.17782091 98.14167234 -4.375 99.625 C -4.97828125 100.04523438 -5.5815625 100.46546875 -6.203125 100.8984375 C -10.73462865 104 -10.73462865 104 -13 104 C -13 104.66 -13 105.32 -13 106 C -15.475 106.99 -15.475 106.99 -18 108 C -18 108.66 -18 109.32 -18 110 C -18.99 110 -19.98 110 -21 110 C -21 108.68 -21 107.36 -21 106 C -21.928125 105.71125 -22.85625 105.4225 -23.8125 105.125 C -27 104 -27 104 -30 102 C -32.0492094 101.54860541 -32.0492094 101.54860541 -34.1875 101.375 C -36.0746875 101.189375 -36.0746875 101.189375 -38 101 C -38.11858127 89.61619816 -37.86612792 78.35246238 -37 67 C -36.34 67 -35.68 67 -35 67 C -35.01740234 65.93458984 -35.01740234 65.93458984 -35.03515625 64.84765625 C -35.04417969 63.92855469 -35.05320312 63.00945312 -35.0625 62.0625 C -35.07410156 61.14597656 -35.08570312 60.22945312 -35.09765625 59.28515625 C -35 57 -35 57 -34 56 C -33.79300437 54.50503158 -33.63320741 53.0033408 -33.5 51.5 C -33.11111111 47.11111111 -33.11111111 47.11111111 -32 46 C -31.87625 44.989375 -31.7525 43.97875 -31.625 42.9375 C -31.07292406 39.45942159 -30.18470011 36.55189737 -28.87890625 33.296875 C -27.84123164 30.58508535 -26.99341143 27.83297858 -26.125 25.0625 C -25.43319511 23.03594887 -24.72523333 21.01483004 -24 19 C -23.67644531 18.09765625 -23.35289062 17.1953125 -23.01953125 16.265625 C -21.89793629 13.72280321 -20.99134687 11.94514393 -19 10 C -15.29747313 8.94452854 -11.82243193 9 -8 9 C -6.32600494 8.7056712 -4.65574122 8.38393999 -3 8 C -2.814375 7.13375 -2.814375 7.13375 -2.625 6.25 C -1.99274387 3.97387794 -1.08136532 2.09239794 0 0 Z" stroke-linecap="round"></path>
</g>
		<g transform="matrix(1 0 0 1 7.1242 72.1884)">
<path style="stroke: none; stroke-width: 1; stroke-dasharray: none; stroke-linecap: butt; stroke-dashoffset: 0; stroke-linejoin: miter; stroke-miterlimit: 4; is-custom-font: none; font-file-url: none; fill: rgb(253,253,253); fill-rule: nonzero; opacity: 1;" transform=" translate(36.3758, -45.6884)" d="M 0 0 C 0.99 0 1.98 0 3 0 C 3 0.66 3 1.32 3 2 C 3.62648438 1.97679687 4.25296875 1.95359375 4.8984375 1.9296875 C 5.71570313 1.91164062 6.53296875 1.89359375 7.375 1.875 C 8.18710938 1.85179687 8.99921875 1.82859375 9.8359375 1.8046875 C 12 2 12 2 14 4 C 15.81510789 9.76563682 16.37611226 15.3417077 16.75390625 21.36328125 C 16.90940687 24.10605185 16.90940687 24.10605185 18 27 C 18.10862223 29.43423329 18.16402769 31.83886136 18.16796875 34.2734375 C 18.17296135 35.35282089 18.17296135 35.35282089 18.17805481 36.45401001 C 18.18311898 37.9821916 18.18546329 39.51038425 18.18530273 41.03857422 C 18.18745947 43.33190316 18.20553618 45.62472685 18.22460938 47.91796875 C 18.30626092 67.36066667 18.30626092 67.36066667 16 74 C 12.90350608 76.56609993 9.78864874 77.73531554 6 79 C 4.36806012 79.7134993 2.74247827 80.44179692 1.125 81.1875 C 0.07699219 81.64189453 0.07699219 81.64189453 -0.9921875 82.10546875 C -2.99635944 82.96131514 -2.99635944 82.96131514 -4.80859375 84.015625 C -7.85155155 85.38251514 -10.91975917 85.91572435 -14.1875 86.5625 C -18.41776949 87.07529862 -18.41776949 87.07529862 -22 89 C -29.79038798 90.9718065 -37.56067883 91.38517663 -45.5625 91.375 C -47.26007446 91.37584595 -47.26007446 91.37584595 -48.99194336 91.37670898 C -57.37123677 91.26805663 -65.03311419 90.17907815 -73.09765625 87.97265625 C -76.71338774 86.98604164 -80.28162412 86.56692163 -84.01123047 86.25 C -86.55210295 85.93059742 -88.70278386 85.1115562 -91 84 C -90.78125 81.6640625 -90.78125 81.6640625 -90 79 C -87.96875 77.5234375 -87.96875 77.5234375 -85.5 76.375 C -83.06549533 75.27578449 -83.06549533 75.27578449 -81 74 C -80.67 73.01 -80.34 72.02 -80 71 C -77.5234375 69.09765625 -77.5234375 69.09765625 -74.375 67.0625 C -73.2921875 66.36253906 -72.209375 65.66257812 -71.09375 64.94140625 C -61.62575453 59 -61.62575453 59 -59 59 C -59 58.34 -59 57.68 -59 57 C -58.34 57 -57.68 57 -57 57 C -57 56.34 -57 55.68 -57 55 C -53.55892734 52.70595156 -52.03160191 52.73706944 -48 53 C -47.67 53.33 -47.34 53.66 -47 54 C -44.98405418 54.23427778 -42.961526 54.41336124 -40.9375 54.5625 C -39.83277344 54.64628906 -38.72804687 54.73007813 -37.58984375 54.81640625 C -36.73519531 54.87699219 -35.88054687 54.93757813 -35 55 C -35 54.34 -35 53.68 -35 53 C -33.02 52.34 -31.04 51.68 -29 51 C -29 50.34 -29 49.68 -29 49 C -28.34 49 -27.68 49 -27 49 C -24.89827324 43.60641205 -24.63261841 38.53357275 -24.52148438 32.83398438 C -24.34984257 28.42572049 -23.78101962 25.47791816 -21 22 C -20.01 21.67 -19.02 21.34 -18 21 C -18 20.34 -18 19.68 -18 19 C -17.34 19 -16.68 19 -16 19 C -15.62875 18.13568359 -15.62875 18.13568359 -15.25 17.25390625 C -13.81305755 14.6629194 -12.14041667 12.97955193 -10 10.9375 C -7.62557202 8.66346144 -5.83652048 6.75478071 -4 4 C -3.01 4 -2.02 4 -1 4 C -0.67 2.68 -0.34 1.36 0 0 Z" stroke-linecap="round"></path>
</g>
		<g transform="matrix(1 0 0 1 -89.2609 36.3847)">
<path style="stroke: none; stroke-width: 1; stroke-dasharray: none; stroke-linecap: butt; stroke-dashoffset: 0; stroke-linejoin: miter; stroke-miterlimit: 4; is-custom-font: none; font-file-url: none; fill: rgb(251,252,252); fill-rule: nonzero; opacity: 1;" transform=" translate(20.1359, -51.0723)" d="M 0 0 C 1.20398438 -0.01417969 2.40796875 -0.02835938 3.6484375 -0.04296875 C 6.625 0.1875 6.625 0.1875 8.625 2.1875 C 9.97711268 8.27200704 9.97711268 8.27200704 8.6875 11.625 C 8.1615625 12.3984375 8.1615625 12.3984375 7.625 13.1875 C 6.965 13.1875 6.305 13.1875 5.625 13.1875 C 5.58761719 13.83976563 5.55023438 14.49203125 5.51171875 15.1640625 C 5.10340988 20.59216866 4.32567966 24.38629171 1.625 29.1875 C -1.42334672 35.57730369 -2.96946926 41.5915216 -3.78515625 48.62109375 C -4.26927472 51.54824718 -4.94379496 54.02645307 -5.828125 56.8359375 C -8.25433935 65.47449687 -8.46920595 74.46428843 -9.0625 83.375 C -9.19235612 85.20384755 -9.32320755 87.03262472 -9.45507812 88.86132812 C -9.7731987 93.30265721 -10.07783802 97.74472143 -10.375 102.1875 C -13.95203277 101.67795225 -15.93423804 101.13976843 -18.3828125 98.45703125 C -19.15044922 97.62268555 -19.15044922 97.62268555 -19.93359375 96.77148438 C -20.45050781 96.18689453 -20.96742187 95.60230469 -21.5 95 C -22.02464844 94.43474609 -22.54929687 93.86949219 -23.08984375 93.28710938 C -26.23938626 89.80666557 -28.37788505 86.47323425 -30.375 82.1875 C -31.035 81.5275 -31.695 80.8675 -32.375 80.1875 C -32.375 78.8675 -32.375 77.5475 -32.375 76.1875 C -33.035 76.1875 -33.695 76.1875 -34.375 76.1875 C -40.35788791 65.28716997 -44.79153465 55.42267577 -47.375 43.1875 C -47.58382812 42.35863281 -47.79265625 41.52976563 -48.0078125 40.67578125 C -49.51680363 34.07660171 -49.68061437 27.42994944 -49.8125 20.6875 C -49.84690186 19.706604 -49.88130371 18.72570801 -49.91674805 17.71508789 C -49.93232586 15.11765738 -49.86754068 12.73767487 -49.375 10.1875 C -47.41015625 8.21875 -47.41015625 8.21875 -44.375 7.1875 C -43.72144531 6.93371582 -43.06789063 6.67993164 -42.39453125 6.41845703 C -36.8033057 4.34529206 -31.20316652 3.35573436 -25.3125 2.5625 C -24.46623047 2.44132813 -23.61996094 2.32015625 -22.74804688 2.1953125 C -20.29189305 1.84686816 -17.83399466 1.51521341 -15.375 1.1875 C -14.66794922 1.08816162 -13.96089844 0.98882324 -13.23242188 0.88647461 C -8.80537614 0.28702347 -4.46601675 0.02421918 0 0 Z" stroke-linecap="round"></path>
</g>
		<g transform="matrix(1 0 0 1 50.0351 -49.4153)">
<path style="stroke: none; stroke-width: 1; stroke-dasharray: none; stroke-linecap: butt; stroke-dashoffset: 0; stroke-linejoin: miter; stroke-miterlimit: 4; is-custom-font: none; font-file-url: none; fill: rgb(252,252,252); fill-rule: nonzero; opacity: 1;" transform=" translate(8.4649, -41.0847)" d="M 0 0 C 2.01953125 1.12109375 2.01953125 1.12109375 3.8125 2.4375 C 4.41707031 2.86933594 5.02164063 3.30117187 5.64453125 3.74609375 C 6.09183594 4.15988281 6.53914063 4.57367188 7 5 C 7 5.66 7 6.32 7 7 C 7.59167969 7.11214844 8.18335938 7.22429687 8.79296875 7.33984375 C 14.96003929 9.18450733 19.50853042 15.52952333 23.51953125 20.265625 C 25.03731592 22.08980537 25.03731592 22.08980537 27 24 C 27.1953125 26.1640625 27.1953125 26.1640625 27.125 28.625 C 27.10695313 29.44226563 27.08890625 30.25953125 27.0703125 31.1015625 C 27.04710937 31.72804687 27.02390625 32.35453125 27 33 C 26.34 33 25.68 33 25 33 C 24.93941406 33.62648437 24.87882812 34.25296875 24.81640625 34.8984375 C 24.73261719 35.71570313 24.64882813 36.53296875 24.5625 37.375 C 24.44068359 38.59316406 24.44068359 38.59316406 24.31640625 39.8359375 C 24 42 24 42 23 44 C 22.34 44 21.68 44 21 44 C 20.80531128 44.87833496 20.80531128 44.87833496 20.60668945 45.77441406 C 19.63974366 49.32156812 17.85628131 52.49118204 16.1875 55.75 C 15.84396484 56.42804688 15.50042969 57.10609375 15.14648438 57.8046875 C 14.45375271 59.17195526 13.75958408 60.53849595 13.06396484 61.90429688 C 11.35961221 65.2613788 9.6807088 68.63102865 8 72 C 7.34 72 6.68 72 6 72 C 5.8453125 72.804375 5.8453125 72.804375 5.6875 73.625 C 4.77982733 76.7605965 3.77585012 79.2443705 2 82 C -1.1875 82.875 -1.1875 82.875 -4 83 C -4 82.34 -4 81.68 -4 81 C -4.99 81 -5.98 81 -7 81 C -7.3403125 80.33355469 -7.680625 79.66710937 -8.03125 78.98046875 C -11.27842714 72.80565052 -14.87958456 67.19555261 -19.0703125 61.62109375 C -20.79369479 59.28022428 -22.34061429 56.90378663 -23.875 54.4375 C -26.95794239 49.70633634 -30.85610455 45.95358623 -34.92578125 42.06640625 C -37 40 -37 40 -38 38 C -39.64821244 36.96986723 -41.31503702 35.96885372 -43 35 C -44 34 -44 34 -44.09765625 30.40234375 C -44.0909822 28.91403133 -44.07902183 27.42573568 -44.0625 25.9375 C -44.05798828 25.17888672 -44.05347656 24.42027344 -44.04882812 23.63867188 C -44.0370068 21.75908129 -44.01907078 19.87953101 -44 18 C -37.25 14 -37.25 14 -35 14 C -35 13.34 -35 12.68 -35 12 C -29.43139332 9.41018844 -23.89546904 6.88148593 -18.10546875 4.828125 C -14.50522625 3.41207415 -11.06694923 1.62995417 -7.61328125 -0.109375 C -4.53201546 -1.15949249 -3.06777107 -1.01097001 0 0 Z" stroke-linecap="round"></path>
</g>
		<g transform="matrix(1 0 0 1 88.071 -4.5)">
<path style="stroke: none; stroke-width: 1; stroke-dasharray: none; stroke-linecap: butt; stroke-dashoffset: 0; stroke-linejoin: miter; stroke-miterlimit: 4; is-custom-font: none; font-file-url: none; fill: rgb(250,251,251); fill-rule: nonzero; opacity: 1;" transform=" translate(5.429, -46)" d="M 0 0 C 7.59177056 8.71647731 10.3003289 17.98911439 13 29 C 13.34675781 30.14210937 13.69351563 31.28421875 14.05078125 32.4609375 C 16.36731888 41.09790497 16.15175692 49.67474452 16.125 58.5625 C 16.13080078 60.49512695 16.13080078 60.49512695 16.13671875 62.46679688 C 16.13542969 63.71654297 16.13414062 64.96628906 16.1328125 66.25390625 C 16.13168457 67.38127197 16.13055664 68.5086377 16.12939453 69.67016602 C 15.99336133 73.17083938 15.55224932 76.54254633 15 80 C 14.34 80 13.68 80 13 80 C 12.34 83.96 11.68 87.92 11 92 C 5.65869107 90.93173821 4.87253313 90.29800848 1.375 86.5 C -1.79517542 82.97057818 -1.79517542 82.97057818 -6 81 C -6 80.34 -6 79.68 -6 79 C -6.66 79 -7.32 79 -8 79 C -8 78.34 -8 77.68 -8 77 C -8.721875 76.731875 -9.44375 76.46375 -10.1875 76.1875 C -12.99766383 75.00098638 -15.48416557 73.72514361 -18 72 C -18 71.34 -18 70.68 -18 70 C -18.969375 69.71125 -19.93875 69.4225 -20.9375 69.125 C -24 68 -24 68 -25 66 C -25.07092842 63.7927077 -25.08415025 61.58332548 -25.0625 59.375 C -25.05347656 58.18648437 -25.04445313 56.99796875 -25.03515625 55.7734375 C -25.02355469 54.85820312 -25.01195312 53.94296875 -25 53 C -25.66 53 -26.32 53 -27 53 C -27 51.02 -27 49.04 -27 47 C -26.34 47 -25.68 47 -25 47 C -24.896875 46.41347656 -24.79375 45.82695312 -24.6875 45.22265625 C -23.89258043 42.65271742 -22.82245581 41.39576382 -21 39.4375 C -18.88166863 37.15112792 -18.01082314 36.03246941 -17 33 C -16.34 33 -15.68 33 -15 33 C -14.81824219 32.24074219 -14.63648438 31.48148438 -14.44921875 30.69921875 C -14.19785156 29.70535156 -13.94648438 28.71148437 -13.6875 27.6875 C -13.44386719 26.70136719 -13.20023437 25.71523437 -12.94921875 24.69921875 C -11.97119884 21.91810039 -11.13909139 20.92463236 -9 19 C -5.87171053 14.02003919 -4.17961843 8.66264747 -2.7109375 3.00390625 C -2 1 -2 1 0 0 Z" stroke-linecap="round"></path>
</g>
		<g transform="matrix(1 0 0 1 5.9519 -27.0634)">
<path style="stroke: none; stroke-width: 1; stroke-dasharray: none; stroke-linecap: butt; stroke-dashoffset: 0; stroke-linejoin: miter; stroke-miterlimit: 4; is-custom-font: none; font-file-url: none; fill: rgb(250,251,251); fill-rule: nonzero; opacity: 1;" transform=" translate(-2.4519, -23.4366)" d="M 0 0 C 3.3125 -0.3125 3.3125 -0.3125 7 0 C 8.4375 2.0625 8.4375 2.0625 10 5 C 11.19286121 6.12318473 12.42762114 7.20254257 13.6875 8.25 C 18.26796996 12.12707055 22.13400833 16.42086423 26 21 C 26.69480469 21.80695313 27.38960937 22.61390625 28.10546875 23.4453125 C 33.32345435 29.69123147 38.59371448 36.28708793 39.3125 44.625 C 39.209375 45.40875 39.10625 46.1925 39 47 C 33.09573935 47.42940077 29.45289666 46.60171823 24.15625 44.0078125 C 21.82324327 42.84608316 21.82324327 42.84608316 18.4375 42 C 15.02281275 41.00663644 12.20099304 39.68383555 9.08984375 38 C 4.02894249 35.5783351 -0.82255926 34.6635374 -6.375 34.0625 C -10.5391222 33.57346597 -14.47580221 33.05692489 -18.375 31.4375 C -21.59583078 30.160274 -23.46034228 29.81272083 -26.8125 29.625 C -30.73176928 29.26010252 -30.73176928 29.26010252 -33.0625 27 C -34.3490972 22.88288897 -34.82290573 19.26414785 -34 15 C -32.5845797 12.43127428 -31.19415028 11.03742526 -29 9 C -28.34 9 -27.68 9 -27 9 C -26.731875 8.401875 -26.46375 7.80375 -26.1875 7.1875 C -24.9271059 4.8657214 -24.14126209 3.5505691 -22 2 C -18.375 1.25 -18.375 1.25 -15 1 C -14.67 1.33 -14.34 1.66 -14 2 C -11.81707226 2.23481693 -9.62796826 2.41363323 -7.4375 2.5625 C -5.64119141 2.68818359 -5.64119141 2.68818359 -3.80859375 2.81640625 C -2.88175781 2.87699219 -1.95492187 2.93757813 -1 3 C -0.67 2.01 -0.34 1.02 0 0 Z" stroke-linecap="round"></path>
</g>
		<g transform="matrix(1 0 0 1 -7.5 -93.6828)">
<path style="stroke: none; stroke-width: 1; stroke-dasharray: none; stroke-linecap: butt; stroke-dashoffset: 0; stroke-linejoin: miter; stroke-miterlimit: 4; is-custom-font: none; font-file-url: none; fill: rgb(250,250,250); fill-rule: nonzero; opacity: 1;" transform=" translate(-0.3923, -15.1328)" d="M 0 0 C 2.19183419 0.00315512 4.38230637 -0.02037809 6.57397461 -0.0456543 C 17.13442784 -0.09291094 28.91813855 0.14952539 38.39233398 5.31567383 C 39.77878992 5.68608135 41.17542258 6.02056299 42.57983398 6.31567383 C 43.83795898 6.64567383 45.09608398 6.97567383 46.39233398 7.31567383 C 46.88733398 8.30567383 46.88733398 8.30567383 47.39233398 9.31567383 C 48.38233398 9.64567383 49.37233398 9.97567383 50.39233398 10.31567383 C 50.39233398 11.30567383 50.39233398 12.29567383 50.39233398 13.31567383 C 49.67432617 13.5605957 48.95631836 13.80551758 48.21655273 14.05786133 C 40.03486409 17.01264303 32.57642291 20.71870492 25.01806641 25.01245117 C 20.65304719 27.42102024 17.5258252 29.02133501 12.39233398 28.31567383 C 11.58795898 27.98567383 10.78358398 27.65567383 9.95483398 27.31567383 C 3.98789733 24.98711318 -1.69801388 26.65682411 -7.60766602 28.31567383 C -7.60766602 28.97567383 -7.60766602 29.63567383 -7.60766602 30.31567383 C -13.81074105 29.51527705 -19.36960774 26.47774255 -24.85766602 23.62817383 C -27.48639672 22.37355235 -29.73855131 21.73760246 -32.60766602 21.31567383 C -32.60766602 20.65567383 -32.60766602 19.99567383 -32.60766602 19.31567383 C -38.2652207 17.50571166 -43.69473561 15.95838365 -49.60766602 15.31567383 C -49.60766602 14.32567383 -49.60766602 13.33567383 -49.60766602 12.31567383 C -48.61766602 12.31567383 -47.62766602 12.31567383 -46.60766602 12.31567383 C -46.60766602 11.65567383 -46.60766602 10.99567383 -46.60766602 10.31567383 C -45.21547852 9.88254883 -45.21547852 9.88254883 -43.79516602 9.44067383 C -40.50974935 8.42817383 -40.50974935 8.42817383 -37.60766602 6.31567383 C -36.61766602 6.31567383 -35.62766602 6.31567383 -34.60766602 6.31567383 C -34.60766602 5.65567383 -34.60766602 4.99567383 -34.60766602 4.31567383 C -33.47329102 4.17129883 -32.33891602 4.02692383 -31.17016602 3.87817383 C -27.79989401 3.70395905 -27.79989401 3.70395905 -26.60766602 2.31567383 C -17.84188032 0.16011984 -8.97008868 -0.02688338 0 0 Z" stroke-linecap="round"></path>
</g>
		<g transform="matrix(1 0 0 1 82.0521 57.5)">
<path style="stroke: none; stroke-width: 1; stroke-dasharray: none; stroke-linecap: butt; stroke-dashoffset: 0; stroke-linejoin: miter; stroke-miterlimit: 4; is-custom-font: none; font-file-url: none; fill: rgb(245,247,248); fill-rule: nonzero; opacity: 1;" transform=" translate(-16.5521, -32)" d="M 0 0 C 6.75 2.625 6.75 2.625 9 6 C 10.63631892 7.04892238 12.30485863 8.04906703 14 9 C 14.99 9.66 15.98 10.32 17 11 C 17 11.66 17 12.32 17 13 C 17.56203125 13.08378906 18.1240625 13.16757813 18.703125 13.25390625 C 21.70483195 14.22895052 23.41556318 15.82811509 25.75 17.9375 C 26.54921875 18.64777344 27.3484375 19.35804688 28.171875 20.08984375 C 30 22 30 22 30 24 C 30.99 24 31.98 24 33 24 C 34.00363721 32.02909771 27.5431123 39.88744891 23 46 C 21.3540349 47.68711423 19.68762851 49.3545622 18 51 C 16.98146059 52.31922525 15.98266949 53.65384308 15 55 C 12.54292094 58.33505847 10.13842537 61.28568617 7 64 C 6.01 64 5.02 64 4 64 C 4.01160156 62.91589844 4.02320313 61.83179688 4.03515625 60.71484375 C 4.10859167 50.28136582 3.94335254 39.8597905 3.62667847 29.431427 C 3.58381787 28.01633439 3.54258406 26.60119158 3.50296021 25.18600464 C 3.44596674 23.18244244 3.38135117 21.17910147 3.31640625 19.17578125 C 3.27974854 18.00958252 3.24309082 16.84338379 3.20532227 15.6418457 C 3.29401986 13.07728978 3.29401986 13.07728978 2 12 C 1.85884839 9.32941149 1.95752893 6.67567762 2 4 C 1.34 4 0.68 4 0 4 C 0 2.68 0 1.36 0 0 Z" stroke-linecap="round"></path>
</g>
		<g transform="matrix(1 0 0 1 -44.9101 -20.8523)">
<path style="stroke: none; stroke-width: 1; stroke-dasharray: none; stroke-linecap: butt; stroke-dashoffset: 0; stroke-linejoin: miter; stroke-miterlimit: 4; is-custom-font: none; font-file-url: none; fill: rgb(221,103,44); fill-rule: nonzero; opacity: 1;" transform=" translate(-4.5898, -8.6476)" d="M 0 0 C 4.13998349 -0.32470459 6.33999001 -0.4304413 9.875 1.875 C 12.37454287 4.37454287 12.90956794 5.32175958 13.375 8.8125 C 13 12 13 12 11.125 14.875 C 6.86511834 17.77171953 3.0339033 17.84640852 -2 17 C -4 15 -4 15 -4.1953125 12.1796875 C -4.17210937 11.08914062 -4.14890625 9.99859375 -4.125 8.875 C -4.10695312 7.77929688 -4.08890625 6.68359375 -4.0703125 5.5546875 C -4.04710937 4.71164063 -4.02390625 3.86859375 -4 3 C -2.68 2.67 -1.36 2.34 0 2 C 0 1.34 0 0.68 0 0 Z" stroke-linecap="round"></path>
</g>
		<g transform="matrix(1 0 0 1 -68.5445 105.2763)">
<path style="stroke: none; stroke-width: 1; stroke-dasharray: none; stroke-linecap: butt; stroke-dashoffset: 0; stroke-linejoin: miter; stroke-miterlimit: 4; is-custom-font: none; font-file-url: none; fill: rgb(232,236,238); fill-rule: nonzero; opacity: 1;" transform=" translate(5.0445, -7.7762)" d="M 0 0 C 0.99 0.66 1.98 1.32 3 2 C 3.3984375 4.49609375 3.3984375 4.49609375 3.375 7.4375 C 3.38273437 8.40558594 3.39046875 9.37367188 3.3984375 10.37109375 C 3 13 3 13 1.7890625 14.8203125 C -0.57105977 16.37655033 -2.18655873 16.43331333 -5 16.4375 C -5.86625 16.45683594 -6.7325 16.47617187 -7.625 16.49609375 C -10 16 -10 16 -11.78125 14.25390625 C -13.78868632 10.54143588 -13.78119846 7.10129192 -13 3 C -9.1670909 -2.0306932 -5.64543073 -1.27477468 0 0 Z" stroke-linecap="round"></path>
</g>
		<g transform="matrix(1 0 0 1 52.2939 10.343)">
<path style="stroke: none; stroke-width: 1; stroke-dasharray: none; stroke-linecap: butt; stroke-dashoffset: 0; stroke-linejoin: miter; stroke-miterlimit: 4; is-custom-font: none; font-file-url: none; fill: rgb(212,103,48); fill-rule: nonzero; opacity: 1;" transform=" translate(5.2061, -7.843)" d="M 0 0 C 2.125 1.9375 2.125 1.9375 3 5 C 3.11303137 8.12181889 3.06211591 11.04580874 2 14 C -1.56869921 16.42459394 -4.75939021 16.37862587 -9 16 C -11.4375 15.0625 -11.4375 15.0625 -13 13 C -13.78387217 8.73314941 -13.70052658 5.24876477 -11.5625 1.4375 C -7.74724437 -0.70276535 -4.26555246 -0.90310373 0 0 Z" stroke-linecap="round"></path>
</g>
		<g transform="matrix(1 0 0 1 -3.6221 -65.1016)">
<path style="stroke: none; stroke-width: 1; stroke-dasharray: none; stroke-linecap: butt; stroke-dashoffset: 0; stroke-linejoin: miter; stroke-miterlimit: 4; is-custom-font: none; font-file-url: none; fill: rgb(213,103,48); fill-rule: nonzero; opacity: 1;" transform=" translate(0.1222, -7.8359)" d="M 0 0 C 0.86625 -0.01933594 1.7325 -0.03867188 2.625 -0.05859375 C 5 0.4375 5 0.4375 6.80078125 2.23046875 C 8.48819377 5.33596735 8.20019656 7.96742635 8 11.4375 C 7.34 11.4375 6.68 11.4375 6 11.4375 C 5.67 12.7575 5.34 14.0775 5 15.4375 C 3.39667209 15.51871924 1.79215974 15.57679134 0.1875 15.625 C -0.70582031 15.65980469 -1.59914062 15.69460937 -2.51953125 15.73046875 C -5 15.4375 -5 15.4375 -6.80078125 14.20703125 C -8.31117943 11.97833296 -8.40177304 10.61480443 -8.375 7.9375 C -8.38273438 7.1640625 -8.39046875 6.390625 -8.3984375 5.59375 C -7.50036243 0.73357904 -4.54397824 0.00676187 0 0 Z" stroke-linecap="round"></path>
</g>
		<g transform="matrix(1 0 0 1 2.7403 62.9707)">
<path style="stroke: none; stroke-width: 1; stroke-dasharray: none; stroke-linecap: butt; stroke-dashoffset: 0; stroke-linejoin: miter; stroke-miterlimit: 4; is-custom-font: none; font-file-url: none; fill: rgb(244,245,246); fill-rule: nonzero; opacity: 1;" transform=" translate(3.7598, -7.4707)" d="M 0 0 C 3.31565027 2.73541147 3.91338967 4.3720751 4.5 8.625 C 4 12 4 12 2.4375 13.9375 C -1.47369006 15.64237772 -5.13469849 15.63857169 -9.16796875 14.2578125 C -11 13 -11 13 -11.64453125 10.94140625 C -11.69996094 10.15636719 -11.75539062 9.37132812 -11.8125 8.5625 C -11.88082031 7.78003906 -11.94914063 6.99757812 -12.01953125 6.19140625 C -12 4 -12 4 -11 1 C -7.2861175 -0.23796083 -3.85386395 -0.67462005 0 0 Z" stroke-linecap="round"></path>
</g>
		<g transform="matrix(1 0 0 1 -4.5 115.7674)">
<path style="stroke: none; stroke-width: 1; stroke-dasharray: none; stroke-linecap: butt; stroke-dashoffset: 0; stroke-linejoin: miter; stroke-miterlimit: 4; is-custom-font: none; font-file-url: none; fill: rgb(57,120,157); fill-rule: nonzero; opacity: 1;" transform=" translate(37, -3.2674)" d="M 0 0 C -2.64257766 3.40303166 -5.5154037 3.79579099 -9.625 4.625 C -13.6302802 5.14123526 -13.6302802 5.14123526 -17 7 C -19.79083546 7.12608333 -22.5555019 7.18870347 -25.34765625 7.203125 C -26.61554237 7.21167511 -26.61554237 7.21167511 -27.90904236 7.22039795 C -29.70554344 7.22986796 -31.50206205 7.23638983 -33.29858398 7.24023438 C -36.02684787 7.24987403 -38.75433716 7.28084996 -41.48242188 7.3125 C -43.2291622 7.31903658 -44.97590792 7.32428447 -46.72265625 7.328125 C -47.93563133 7.3466452 -47.93563133 7.3466452 -49.17311096 7.36553955 C -54.7765596 7.34389606 -58.84400154 6.20043729 -64 4 C -65.82658938 3.41597208 -67.659022 2.84945192 -69.5 2.3125 C -70.3559375 2.06113281 -71.211875 1.80976563 -72.09375 1.55078125 C -72.7228125 1.36902344 -73.351875 1.18726563 -74 1 C -74 0.67 -74 0.34 -74 0 C -69.05919387 -0.17606436 -65.02376567 0.0910057 -60.21704102 1.42333984 C -51.65950153 3.78218081 -43.4237625 4.38509974 -34.5625 4.375 C -32.94722412 4.37693359 -32.94722412 4.37693359 -31.29931641 4.37890625 C -21.69120603 4.24868698 -12.77118374 2.91992725 -3.77734375 -0.51171875 C -2 -1 -2 -1 0 0 Z" stroke-linecap="round"></path>
</g>
		<g transform="matrix(1 0 0 1 114.5499 -3)">
<path style="stroke: none; stroke-width: 1; stroke-dasharray: none; stroke-linecap: butt; stroke-dashoffset: 0; stroke-linejoin: miter; stroke-miterlimit: 4; is-custom-font: none; font-file-url: none; fill: rgb(153,172,183); fill-rule: nonzero; opacity: 1;" transform=" translate(-5.0499, -39.5)" d="M 0 0 C 3.13352847 3.27596159 3.70833311 6.56230033 4.47265625 10.87890625 C 4.94292277 13.28007496 4.94292277 13.28007496 7 16 C 7.43149167 18.55510751 7.78462399 21.05404282 8.0625 23.625 C 8.19681898 28.18412061 8.19681898 28.18412061 10 32 C 10.08783542 34.21855264 10.10694609 36.43988496 10.09765625 38.66015625 C 10.0962413 39.32462265 10.09482635 39.98908905 10.09336853 40.6736908 C 10.08775518 42.80333899 10.07520054 44.93288339 10.0625 47.0625 C 10.05748671 48.50325369 10.05292351 49.94400903 10.04882812 51.38476562 C 10.03778145 54.92321102 10.02050792 58.46159539 10 62 C 9.34 62 8.68 62 8 62 C 8.02320313 62.73605469 8.04640625 63.47210938 8.0703125 64.23046875 C 8.08835937 65.20628906 8.10640625 66.18210937 8.125 67.1875 C 8.14820313 68.15042969 8.17140625 69.11335938 8.1953125 70.10546875 C 7.98896101 73.1635978 7.38418613 75.27518604 6 78 C 5.01 78.495 5.01 78.495 4 79 C 4.11580131 76.68702112 4.24313874 74.37461891 4.375 72.0625 C 4.44460938 70.77472656 4.51421875 69.48695313 4.5859375 68.16015625 C 4.80915017 65.22769979 5.31470048 62.51282276 6.0234375 59.66015625 C 7.22534955 54.54737357 7.30301688 49.60891811 7.25 44.375 C 7.24395752 43.41585693 7.23791504 42.45671387 7.23168945 41.46850586 C 7.08704023 30.99151845 6.75939866 20.51879731 2 11 C 0.72582493 7.04335109 0 4.17209467 0 0 Z" stroke-linecap="round"></path>
</g>
		<g transform="matrix(1 0 0 1 -7.5 -116.4641)">
<path style="stroke: none; stroke-width: 1; stroke-dasharray: none; stroke-linecap: butt; stroke-dashoffset: 0; stroke-linejoin: miter; stroke-miterlimit: 4; is-custom-font: none; font-file-url: none; fill: rgb(112,149,171); fill-rule: nonzero; opacity: 1;" transform=" translate(-12, -3.0359)" d="M 0 0 C 8.58 0 17.16 0 26 0 C 26 0.66 26 1.32 26 2 C 26.96099609 1.96519531 26.96099609 1.96519531 27.94140625 1.9296875 C 33.40987096 1.81559137 37.83098277 2.20208096 43 4 C 43 4.33 43 4.66 43 5 C 41.50011039 5.0276619 40.00006131 5.0466861 38.5 5.0625 C 37.6646875 5.07410156 36.829375 5.08570313 35.96875 5.09765625 C 33 5 33 5 29.296875 4.50390625 C 24.44521192 3.86025991 19.6379186 3.8496855 14.75 3.875 C 13.82848145 3.87765869 12.90696289 3.88031738 11.95751953 3.88305664 C 0.31419567 3.75422995 0.31419567 3.75422995 -11 6 C -12.39439664 6.06665376 -13.79169875 6.08538199 -15.1875 6.0625 C -17.0746875 6.0315625 -17.0746875 6.0315625 -19 6 C -13.29748376 2.19832251 -6.72147407 1.71397983 0 2 C 0 1.34 0 0.68 0 0 Z" stroke-linecap="round"></path>
</g>
		<g transform="matrix(1 0 0 1 -79.4671 64.5)">
<path style="stroke: none; stroke-width: 1; stroke-dasharray: none; stroke-linecap: butt; stroke-dashoffset: 0; stroke-linejoin: miter; stroke-miterlimit: 4; is-custom-font: none; font-file-url: none; fill: rgb(100,144,169); fill-rule: nonzero; opacity: 1;" transform=" translate(4.9671, -27)" d="M 0 0 C 0.33 0 0.66 0 1 0 C 1.1253054 7.5183241 1.1253054 7.5183241 0.51147461 9.87789917 C 0.00001326 11.99994497 -0.18641936 13.91644383 -0.28125 16.09423828 C -0.31798828 16.88831085 -0.35472656 17.68238342 -0.39257812 18.5005188 C -0.42802734 19.34855072 -0.46347656 20.19658264 -0.5 21.0703125 C -0.54060547 21.94775116 -0.58121094 22.82518982 -0.62304688 23.72921753 C -0.79656306 27.4788773 -0.96075374 31.22892821 -1.125 34.97900391 C -1.24633089 37.71795393 -1.37298385 40.45662119 -1.5 43.1953125 C -1.53544922 44.04739288 -1.57089844 44.89947327 -1.60742188 45.77737427 C -1.88708813 51.77417627 -1.88708813 51.77417627 -3 54 C -6.68754757 53.50168276 -8.60490662 52.89932357 -11 50 C -10.67 49.34 -10.34 48.68 -10 48 C -8.35 48.66 -6.7 49.32 -5 50 C -5.02320312 49.02804688 -5.04640625 48.05609375 -5.0703125 47.0546875 C -5.32081176 31.53138245 -5.29621097 14.75877457 0 0 Z" stroke-linecap="round"></path>
</g>
		<g transform="matrix(1 0 0 1 70.4843 57.5)">
<path style="stroke: none; stroke-width: 1; stroke-dasharray: none; stroke-linecap: butt; stroke-dashoffset: 0; stroke-linejoin: miter; stroke-miterlimit: 4; is-custom-font: none; font-file-url: none; fill: rgb(86,132,160); fill-rule: nonzero; opacity: 1;" transform=" translate(-5.9844, -33)" d="M 0 0 C 3.68901928 0.70942678 6.7651338 2.10127418 10 4 C 11.375 6.1875 11.375 6.1875 12 8 C 10.68 7.34 9.36 6.68 8 6 C 8 5.34 8 4.68 8 4 C 6.02 3.34 4.04 2.68 2 2 C 1.67 2.99 1.34 3.98 1 5 C 1.66 5 2.32 5 3 5 C 3.22786458 7.05078125 3.45572917 9.1015625 3.68359375 11.15234375 C 3.81886614 13.01140229 3.81886614 13.01140229 5 14 C 5.17318631 17.08007844 5.28433762 20.13967411 5.3515625 23.22265625 C 5.37471527 24.15669785 5.39786804 25.09073944 5.42172241 26.05308533 C 5.46946599 28.03785569 5.514687 30.02268805 5.55761719 32.00756836 C 5.62418342 35.02547889 5.70215805 38.04294187 5.78125 41.06054688 C 5.82621794 42.98956721 5.87050974 44.91860345 5.9140625 46.84765625 C 5.94990952 48.19187401 5.94990952 48.19187401 5.98648071 49.56324768 C 6.09003638 54.82470999 5.78173199 59.79411814 5 65 C 5.66 65.33 6.32 65.66 7 66 C 6.01 66 5.02 66 4 66 C 3.98018066 65.09048584 3.96036133 64.18097168 3.93994141 63.24389648 C 3.45670678 40.84828056 3.45670678 40.84828056 2 18.5 C 1.8755249 17.07965454 1.8755249 17.07965454 1.74853516 15.63061523 C 1.42893185 11.16577609 1.42893185 11.16577609 0 7 C -0.04022391 4.6670134 -0.04320247 2.33293334 0 0 Z" stroke-linecap="round"></path>
</g>
		<g transform="matrix(1 0 0 1 102.5684 10)">
<path style="stroke: none; stroke-width: 1; stroke-dasharray: none; stroke-linecap: butt; stroke-dashoffset: 0; stroke-linejoin: miter; stroke-miterlimit: 4; is-custom-font: none; font-file-url: none; fill: rgb(149,170,183); fill-rule: nonzero; opacity: 1;" transform=" translate(2.9316, -31.5)" d="M 0 0 C 0.33 0 0.66 0 1 0 C 4.07669254 9.84541614 4.15590042 19.2984094 4.125 29.5625 C 4.12886719 30.85091797 4.13273437 32.13933594 4.13671875 33.46679688 C 4.13542969 34.71654297 4.13414062 35.96628906 4.1328125 37.25390625 C 4.13168457 38.38127197 4.13055664 39.5086377 4.12939453 40.67016602 C 3.99336133 44.17083938 3.55224932 47.54254633 3 51 C 2.34 51 1.68 51 1 51 C 0.34 54.96 -0.32 58.92 -1 63 C -6.45949074 61.90810185 -7.01471081 61.31208438 -10 57 C -7.33333333 58.33333333 -4.66666667 59.66666667 -2 61 C -2.020625 59.865625 -2.04125 58.73125 -2.0625 57.5625 C -2 54 -2 54 -1 53 C 1.59028591 44.82713947 1.27474959 36.2447186 1.20581055 27.77416992 C 1.18729382 25.41118832 1.18530314 23.04859422 1.18554688 20.68554688 C 1.18063993 19.18489242 1.17481525 17.68424061 1.16796875 16.18359375 C 1.16685593 15.47641708 1.1657431 14.76924042 1.16459656 14.04063416 C 1.41561801 10.73726311 1.41561801 10.73726311 0 8 C -0.14115161 5.32941149 -0.04247107 2.67567762 0 0 Z" stroke-linecap="round"></path>
</g>
		<g transform="matrix(1 0 0 1 -23 122.5566)">
<path style="stroke: none; stroke-width: 1; stroke-dasharray: none; stroke-linecap: butt; stroke-dashoffset: 0; stroke-linejoin: miter; stroke-miterlimit: 4; is-custom-font: none; font-file-url: none; fill: rgb(156,177,190); fill-rule: nonzero; opacity: 1;" transform=" translate(-33.5, -6.0566)" d="M 0 0 C 6.11518641 0.56544532 11.45125322 1.96168757 17.25 3.9375 C 23.74936158 6.08242231 30.03772212 7.78752897 36.84765625 8.67578125 C 39 9 39 9 41 10 C 43.17824961 10.08559118 45.35915255 10.10713412 47.5390625 10.09765625 C 48.84101563 10.09443359 50.14296875 10.09121094 51.484375 10.08789062 C 52.86458399 10.07953466 54.24479232 10.07106971 55.625 10.0625 C 57.01301926 10.05748501 58.40104022 10.0529221 59.7890625 10.04882812 C 63.19275132 10.03700976 66.59635439 10.02053434 70 10 C 70 10.66 70 11.32 70 12 C 65.17619198 12.0246519 60.35242033 12.04283693 55.52856445 12.05493164 C 53.88630536 12.05997174 52.24405077 12.06680378 50.60180664 12.07543945 C 48.24624521 12.08751926 45.89074291 12.09323139 43.53515625 12.09765625 C 42.79660904 12.10281754 42.05806183 12.10797882 41.2971344 12.11329651 C 39.53101912 12.1134925 37.76502854 12.06194719 36 12 C 35.505 11.505 35.505 11.505 35 11 C 33.67218122 10.79395915 32.33704105 10.6337041 31 10.5 C 27.11111111 10.11111111 27.11111111 10.11111111 26 9 C 24.948125 8.855625 23.89625 8.71125 22.8125 8.5625 C 19.31833663 8.0469677 16.30615851 7.20957019 13 6 C 13 5.34 13 4.68 13 4 C 7.72 4 2.44 4 -3 4 C -2.01 2.68 -1.02 1.36 0 0 Z" stroke-linecap="round"></path>
</g>
		<g transform="matrix(1 0 0 1 52.6244 68.5)">
<path style="stroke: none; stroke-width: 1; stroke-dasharray: none; stroke-linecap: butt; stroke-dashoffset: 0; stroke-linejoin: miter; stroke-miterlimit: 4; is-custom-font: none; font-file-url: none; fill: rgb(163,185,197); fill-rule: nonzero; opacity: 1;" transform=" translate(2.8756, -39)" d="M 0 0 C 0.66 0.33 1.32 0.66 2 1 C 3.84482219 6.75150449 4.37658723 12.34927803 4.75390625 18.36328125 C 4.90940687 21.10605185 4.90940687 21.10605185 6 24 C 6.10862223 26.43423329 6.16402769 28.83886136 6.16796875 31.2734375 C 6.17129715 31.99302643 6.17462555 32.71261536 6.17805481 33.45401001 C 6.18311898 34.9821916 6.18546329 36.51038425 6.18530273 38.03857422 C 6.18745947 40.33190316 6.20553618 42.62472685 6.22460938 44.91796875 C 6.30708845 64.46272482 6.30708845 64.46272482 4 71 C 0.88190981 73.56284577 -2.16576362 74.81572515 -6 76 C -7.19625 76.433125 -8.3925 76.86625 -9.625 77.3125 C -10.40875 77.539375 -11.1925 77.76625 -12 78 C -9.69650354 74.54475531 -8.23793453 73.95030553 -4.5 72.3125 C -3.5203125 71.87550781 -2.540625 71.43851562 -1.53125 70.98828125 C 1 70 1 70 3 70 C 2.98839844 69.01257813 2.97679687 68.02515625 2.96484375 67.0078125 C 2.95582031 65.72648437 2.94679687 64.44515625 2.9375 63.125 C 2.92589844 61.84882813 2.91429687 60.57265625 2.90234375 59.2578125 C 3 56 3 56 4 54 C 4.09681883 52.19606419 4.13075912 50.3885622 4.1328125 48.58203125 C 4.13410156 47.49212891 4.13539063 46.40222656 4.13671875 45.27929688 C 4.13091797 43.56323242 4.13091797 43.56323242 4.125 41.8125 C 4.12886719 40.68779297 4.13273437 39.56308594 4.13671875 38.40429688 C 4.1301545 32.82140291 3.89231323 27.52250549 3 22 C 2.93747508 20.02171151 2.91306635 18.04162549 2.9375 16.0625 C 2.94652344 15.10472656 2.95554688 14.14695313 2.96484375 13.16015625 C 2.97644531 12.44730469 2.98804688 11.73445312 3 11 C 2.34 11 1.68 11 1 11 C 0.67 7.37 0.34 3.74 0 0 Z" stroke-linecap="round"></path>
</g>
		<g transform="matrix(1 0 0 1 7 -106.6367)">
<path style="stroke: none; stroke-width: 1; stroke-dasharray: none; stroke-linecap: butt; stroke-dashoffset: 0; stroke-linejoin: miter; stroke-miterlimit: 4; is-custom-font: none; font-file-url: none; fill: rgb(92,135,161); fill-rule: nonzero; opacity: 1;" transform=" translate(-18.0313, -4.1289)" d="M 0 0 C 1.29421875 -0.00257812 2.5884375 -0.00515625 3.921875 -0.0078125 C 4.93604492 -0.00152832 4.93604492 -0.00152832 5.97070312 0.00488281 C 7.99640913 0.01544337 10.02119918 0.00505836 12.046875 -0.0078125 C 21.721064 0.01130645 31.12439244 0.49989937 40.15625 4.265625 C 40.97351563 4.595625 41.79078125 4.925625 42.6328125 5.265625 C 44.53125 6.265625 44.53125 6.265625 45.53125 8.265625 C 42.90138391 7.80153098 40.48088212 7.24719773 37.96875 6.328125 C 27.47585575 3.08486678 16.66624626 2.87544739 5.78125 2.640625 C 4.29425086 2.60233039 2.80727117 2.56327258 1.3203125 2.5234375 C -2.27586089 2.42872595 -5.87218476 2.34425591 -9.46875 2.265625 C -5.88394534 -0.12424477 -4.25762282 0.00820125 0 0 Z" stroke-linecap="round"></path>
</g>
		<g transform="matrix(1 0 0 1 14 122.4889)">
<path style="stroke: none; stroke-width: 1; stroke-dasharray: none; stroke-linecap: butt; stroke-dashoffset: 0; stroke-linejoin: miter; stroke-miterlimit: 4; is-custom-font: none; font-file-url: none; fill: rgb(66,119,151); fill-rule: nonzero; opacity: 1;" transform=" translate(29.5, -4.9889)" d="M 0 0 C -0.556875 0.268125 -1.11375 0.53625 -1.6875 0.8125 C -4.07880579 1.99088683 -4.07880579 1.99088683 -6.5 3.625 C -9 5 -9 5 -13 5 C -13 5.66 -13 6.32 -13 7 C -15.31 7 -17.62 7 -20 7 C -20 7.66 -20 8.32 -20 9 C -33.01181059 9.96639442 -45.95545355 10.1183055 -59 10 C -59 9.67 -59 9.34 -59 9 C -58.15703369 8.94465088 -57.31406738 8.88930176 -56.44555664 8.83227539 C -53.32745699 8.6253495 -50.2096715 8.41430883 -47.09204102 8.20043945 C -45.74091591 8.1086091 -44.38967719 8.01843502 -43.03833008 7.92993164 C -41.09948332 7.80266594 -39.16105931 7.66901017 -37.22265625 7.53515625 C -36.05484619 7.456604 -34.88703613 7.37805176 -33.68383789 7.29711914 C -31.08395465 7.29229027 -31.08395465 7.29229027 -30 6 C -27.64686445 5.92728259 -25.29166332 5.91629132 -22.9375 5.9375 C -21.64714844 5.94652344 -20.35679687 5.95554687 -19.02734375 5.96484375 C -18.02832031 5.97644531 -17.02929688 5.98804688 -16 6 C -16 5.34 -16 4.68 -16 4 C -14.274773 3.32320342 -12.54461061 2.65898 -10.8125 2 C -9.36810547 1.443125 -9.36810547 1.443125 -7.89453125 0.875 C -5.07817642 0.02363228 -2.91835561 -0.17072647 0 0 Z" stroke-linecap="round"></path>
</g>
		<g transform="matrix(1 0 0 1 -107.5 -27.9746)">
<path style="stroke: none; stroke-width: 1; stroke-dasharray: none; stroke-linecap: butt; stroke-dashoffset: 0; stroke-linejoin: miter; stroke-miterlimit: 4; is-custom-font: none; font-file-url: none; fill: rgb(181,193,200); fill-rule: nonzero; opacity: 1;" transform=" translate(-4, -12.5254)" d="M 0 0 C 0.66 0 1.32 0 2 0 C 1.53132125 3.65569424 0.71608742 6.97313389 -0.5 10.4375 C -1.84725964 14.31497897 -2.56633153 17.9235164 -3 22 C -0.36 22 2.28 22 5 22 C 5 21.34 5 20.68 5 20 C 7.64 20 10.28 20 13 20 C 8.75544031 24.06001362 2.91408066 24.94686809 -2.78515625 25.05078125 C -3.51605469 25.03402344 -4.24695313 25.01726562 -5 25 C -3.91588785 3.91588785 -3.91588785 3.91588785 0 0 Z" stroke-linecap="round"></path>
</g>
		<g transform="matrix(1 0 0 1 -16 -104.639)">
<path style="stroke: none; stroke-width: 1; stroke-dasharray: none; stroke-linecap: butt; stroke-dashoffset: 0; stroke-linejoin: miter; stroke-miterlimit: 4; is-custom-font: none; font-file-url: none; fill: rgb(205,212,215); fill-rule: nonzero; opacity: 1;" transform=" translate(8.7668, -4.1218)" d="M 0 0 C 2.3234173 0.0108721 4.64608622 -0.00003508 6.96948242 -0.01269531 C 8.45451016 -0.0113761 9.93953744 -0.00881865 11.42456055 -0.00488281 C 12.46043053 -0.01095551 12.46043053 -0.01095551 13.51722717 -0.01715088 C 17.15082708 0.01854449 18.62015398 0.18540864 21.7331543 2.26074219 C 20.64784424 2.25550537 19.56253418 2.25026855 18.44433594 2.24487305 C 14.43197448 2.22682383 10.41961663 2.21531048 6.40722656 2.20581055 C 4.66796262 2.20077014 2.92870294 2.19393789 1.18945312 2.18530273 C -1.30510507 2.17322427 -3.79960744 2.16751111 -6.29418945 2.16308594 C -7.46763161 2.15534401 -7.46763161 2.15534401 -8.66477966 2.14744568 C -10.53251685 2.14724993 -12.40013774 2.19874524 -14.2668457 2.26074219 C -14.5968457 2.59074219 -14.9268457 2.92074219 -15.2668457 3.26074219 C -16.61737385 3.42032319 -17.97293732 3.53802495 -19.3293457 3.63574219 C -23.35808654 4.03159311 -26.61430788 5.02902481 -30.3371582 6.56152344 C -33.28407346 7.62933281 -36.15712437 7.93681288 -39.2668457 8.26074219 C -38.9368457 7.60074219 -38.6068457 6.94074219 -38.2668457 6.26074219 C -37.2768457 6.26074219 -36.2868457 6.26074219 -35.2668457 6.26074219 C -35.2668457 5.60074219 -35.2668457 4.94074219 -35.2668457 4.26074219 C -33.5652832 4.04417969 -33.5652832 4.04417969 -31.8293457 3.82324219 C -28.45907369 3.64902741 -28.45907369 3.64902741 -27.2668457 2.26074219 C -18.27169975 0.01169491 -9.20325754 -0.05140932 0 0 Z" stroke-linecap="round"></path>
</g>
		<g transform="matrix(1 0 0 1 -126.5683 11.5)">
<path style="stroke: none; stroke-width: 1; stroke-dasharray: none; stroke-linecap: butt; stroke-dashoffset: 0; stroke-linejoin: miter; stroke-miterlimit: 4; is-custom-font: none; font-file-url: none; fill: rgb(120,153,172); fill-rule: nonzero; opacity: 1;" transform=" translate(-0.9316, -21)" d="M 0 0 C 0.33 0 0.66 0 1 0 C 1.66 13.86 2.32 27.72 3 42 C 0.41331224 39.41331224 0.65770694 38.03108979 0.4375 34.4375 C 0.50202788 30.90583192 0.50202788 30.90583192 -1 28 C -1.09983058 26.01242972 -1.13080753 24.0213248 -1.1328125 22.03125 C -1.13410156 20.82082031 -1.13539062 19.61039063 -1.13671875 18.36328125 C -1.13285156 17.08839844 -1.12898438 15.81351563 -1.125 14.5 C -1.12886719 13.22511719 -1.13273437 11.95023438 -1.13671875 10.63671875 C -1.13542969 9.42628906 -1.13414063 8.21585938 -1.1328125 6.96875 C -1.13168457 5.84919922 -1.13055664 4.72964844 -1.12939453 3.57617188 C -1 1 -1 1 0 0 Z" stroke-linecap="round"></path>
</g>
		<g transform="matrix(1 0 0 1 -15.5 115.6645)">
<path style="stroke: none; stroke-width: 1; stroke-dasharray: none; stroke-linecap: butt; stroke-dashoffset: 0; stroke-linejoin: miter; stroke-miterlimit: 4; is-custom-font: none; font-file-url: none; fill: rgb(159,176,186); fill-rule: nonzero; opacity: 1;" transform=" translate(-26, -3.1645)" d="M 0 0 C 5.65520553 -0.19522424 10.40916817 0.45831485 15.875 1.9375 C 27.72609892 4.89577301 39.84724679 4.83619343 52 5 C 52 5.33 52 5.66 52 6 C 13.06766031 6.77992667 13.06766031 6.77992667 0 1 C 0 0.67 0 0.34 0 0 Z" stroke-linecap="round"></path>
</g>
		<g transform="matrix(1 0 0 1 -44.875 -22.0869)">
<path style="stroke: none; stroke-width: 1; stroke-dasharray: none; stroke-linecap: butt; stroke-dashoffset: 0; stroke-linejoin: miter; stroke-miterlimit: 4; is-custom-font: none; font-file-url: none; fill: rgb(155,103,78); fill-rule: nonzero; opacity: 1;" transform=" translate(-4.625, -7.413)" d="M 0 0 C 4.13998349 -0.32470459 6.33999001 -0.4304413 9.875 1.875 C 12.45371765 4.45371765 12.94069718 5.30319184 13.25 8.9375 C 13 12 13 12 10 15 C 9.67 11.37 9.34 7.74 9 4 C 5.7 3.67 2.4 3.34 -1 3 C -1 3.66 -1 4.32 -1 5 C -1.66 5 -2.32 5 -3 5 C -3.33 6.32 -3.66 7.64 -4 9 C -4 7.02 -4 5.04 -4 3 C -2.68 2.67 -1.36 2.34 0 2 C 0 1.34 0 0.68 0 0 Z" stroke-linecap="round"></path>
</g>
		<g transform="matrix(1 0 0 1 -64.0137 72.5)">
<path style="stroke: none; stroke-width: 1; stroke-dasharray: none; stroke-linecap: butt; stroke-dashoffset: 0; stroke-linejoin: miter; stroke-miterlimit: 4; is-custom-font: none; font-file-url: none; fill: rgb(189,199,205); fill-rule: nonzero; opacity: 1;" transform=" translate(-4.4862, -18)" d="M 0 0 C 0.33 0 0.66 0 1 0 C 1 10.56 1 21.12 1 32 C 3.31 32.33 5.62 32.66 8 33 C 8.66 33.99 9.32 34.98 10 36 C 6.37 35.34 2.74 34.68 -1 34 C -1.11858127 22.61619816 -0.86612792 11.35246238 0 0 Z" stroke-linecap="round"></path>
</g>
		<g transform="matrix(1 0 0 1 -82 -13.0821)">
<path style="stroke: none; stroke-width: 1; stroke-dasharray: none; stroke-linecap: butt; stroke-dashoffset: 0; stroke-linejoin: miter; stroke-miterlimit: 4; is-custom-font: none; font-file-url: none; fill: rgb(104,143,166); fill-rule: nonzero; opacity: 1;" transform=" translate(18.5, -2.4179)" d="M 0 0 C 0 0.33 0 0.66 0 1 C -0.87213135 1.08564209 -1.7442627 1.17128418 -2.64282227 1.25952148 C -5.90629139 1.58072822 -9.16961836 1.90331338 -12.43286133 2.22680664 C -13.84003406 2.36602366 -15.24725987 2.5047054 -16.65454102 2.64282227 C -18.68780788 2.84247307 -20.72087039 3.04410575 -22.75390625 3.24609375 C -24.58417358 3.42676392 -24.58417358 3.42676392 -26.45141602 3.61108398 C -29.98137122 3.99795833 -33.48771417 4.47798332 -37 5 C -37 4.01 -37 3.02 -37 2 C -24.76471022 -0.67646964 -12.45197224 -0.19791617 0 0 Z" stroke-linecap="round"></path>
</g>
		<g transform="matrix(1 0 0 1 -68.5284 67)">
<path style="stroke: none; stroke-width: 1; stroke-dasharray: none; stroke-linecap: butt; stroke-dashoffset: 0; stroke-linejoin: miter; stroke-miterlimit: 4; is-custom-font: none; font-file-url: none; fill: rgb(91,135,161); fill-rule: nonzero; opacity: 1;" transform=" translate(1.0283, -19.5)" d="M 0 0 C 0.33 0 0.66 0 1 0 C 1 2.31 1 4.62 1 7 C 0.34 7 -0.32 7 -1 7 C -0.98839844 7.969375 -0.97679688 8.93875 -0.96484375 9.9375 C -0.88652735 19.66831329 -1.27743975 29.2970481 -2 39 C -2.33 39 -2.66 39 -3 39 C -3.10396237 26.62367928 -3.19684056 14.33173224 -2 2 C -1.34 2 -0.68 2 0 2 C 0 1.34 0 0.68 0 0 Z" stroke-linecap="round"></path>
</g>
		<g transform="matrix(1 0 0 1 70.4686 38)">
<path style="stroke: none; stroke-width: 1; stroke-dasharray: none; stroke-linecap: butt; stroke-dashoffset: 0; stroke-linejoin: miter; stroke-miterlimit: 4; is-custom-font: none; font-file-url: none; fill: rgb(161,183,197); fill-rule: nonzero; opacity: 1;" transform=" translate(-5.9686, -13.5)" d="M 0 0 C 3.68901928 0.70942678 6.7651338 2.10127418 10 4 C 11.375 6.1875 11.375 6.1875 12 8 C 10.68 7.34 9.36 6.68 8 6 C 8 5.34 8 4.68 8 4 C 6.02 3.34 4.04 2.68 2 2 C 1.67 2.99 1.34 3.98 1 5 C 1.66 5 2.32 5 3 5 C 3.22786458 7.05078125 3.45572917 9.1015625 3.68359375 11.15234375 C 3.81886614 13.01140229 3.81886614 13.01140229 5 14 C 5.07258946 16.18639453 5.08373783 18.37500389 5.0625 20.5625 C 5.05347656 21.76003906 5.04445313 22.95757812 5.03515625 24.19140625 C 5.02355469 25.11824219 5.01195312 26.04507813 5 27 C 4.67 27 4.34 27 4 27 C 3.87882812 26.14277344 3.75765625 25.28554687 3.6328125 24.40234375 C 2.6488505 17.17853832 2.6488505 17.17853832 0.875 10.125 C -0.10212561 6.63526569 -0.14720044 3.60641089 0 0 Z" stroke-linecap="round"></path>
</g>
		<g transform="matrix(1 0 0 1 115.5914 24.5)">
<path style="stroke: none; stroke-width: 1; stroke-dasharray: none; stroke-linecap: butt; stroke-dashoffset: 0; stroke-linejoin: miter; stroke-miterlimit: 4; is-custom-font: none; font-file-url: none; fill: rgb(101,144,170); fill-rule: nonzero; opacity: 1;" transform=" translate(0.9086, -12)" d="M 0 0 C 0.33 0 0.66 0 1 0 C 1.05413245 2.89608593 1.09373641 5.79115195 1.125 8.6875 C 1.14175781 9.50412109 1.15851563 10.32074219 1.17578125 11.16210938 C 1.21103579 15.51604459 1.19981976 19.10031952 -1 23 C -1.66 23.33 -2.32 23.66 -3 24 C -2.58994384 15.80966773 -2.0946225 7.95956551 0 0 Z" stroke-linecap="round"></path>
</g>
		<g transform="matrix(1 0 0 1 -22 -41.5)">
<path style="stroke: none; stroke-width: 1; stroke-dasharray: none; stroke-linecap: butt; stroke-dashoffset: 0; stroke-linejoin: miter; stroke-miterlimit: 4; is-custom-font: none; font-file-url: none; fill: rgb(200,211,218); fill-rule: nonzero; opacity: 1;" transform=" translate(6.5, -8)" d="M 0 0 C 0.66 0.33 1.32 0.66 2 1 C -0.26262636 3.32065386 -2.53643006 5.63003599 -4.8125 7.9375 C -5.77639648 8.9265332 -5.77639648 8.9265332 -6.75976562 9.93554688 C -7.38173828 10.56396484 -8.00371094 11.19238281 -8.64453125 11.83984375 C -9.50075073 12.71177368 -9.50075073 12.71177368 -10.37426758 13.60131836 C -12 15 -12 15 -15 16 C -13.63055898 13.05043472 -12.12169591 10.47531189 -10 8 C -9.34 8 -8.68 8 -8 8 C -7.731875 7.401875 -7.46375 6.80375 -7.1875 6.1875 C -5.28837651 2.68911463 -3.79963639 1.26654546 0 0 Z" stroke-linecap="round"></path>
</g>
		<g transform="matrix(1 0 0 1 0.5 78.5488)">
<path style="stroke: none; stroke-width: 1; stroke-dasharray: none; stroke-linecap: butt; stroke-dashoffset: 0; stroke-linejoin: miter; stroke-miterlimit: 4; is-custom-font: none; font-file-url: none; fill: rgb(144,168,182); fill-rule: nonzero; opacity: 1;" transform=" translate(13, -3.0488)" d="M 0 0 C 0.33 0.66 0.66 1.32 1 2 C -2 4 -2 4 -5 4 C -5 4.66 -5 5.32 -5 6 C -6.97909398 6.02686553 -8.95828971 6.04633375 -10.9375 6.0625 C -12.03964844 6.07410156 -13.14179688 6.08570313 -14.27734375 6.09765625 C -17 6 -17 6 -18 5 C -19.99952758 4.95653201 -22.00039988 4.960008 -24 5 C -24.99 5 -25.98 5 -27 5 C -25 3 -25 3 -21.11328125 2.91015625 C -18.71274263 2.97211853 -16.31510302 3.06238756 -13.91601562 3.16601562 C -8.45663045 3.29675235 -4.87188567 2.49790122 0 0 Z" stroke-linecap="round"></path>
</g>
		<g transform="matrix(1 0 0 1 38 34.5)">
<path style="stroke: none; stroke-width: 1; stroke-dasharray: none; stroke-linecap: butt; stroke-dashoffset: 0; stroke-linejoin: miter; stroke-miterlimit: 4; is-custom-font: none; font-file-url: none; fill: rgb(201,212,218); fill-rule: nonzero; opacity: 1;" transform=" translate(5.5, -8)" d="M 0 0 C 0.99 0 1.98 0 3 0 C 1.34136495 4.32504836 -1.871041 7.09418825 -5.125 10.25 C -5.68832031 10.80429688 -6.25164062 11.35859375 -6.83203125 11.9296875 C -8.21686028 13.29104485 -9.60783204 14.64614859 -11 16 C -11.99 15.67 -12.98 15.34 -14 15 C -13.44570312 14.45730469 -12.89140625 13.91460937 -12.3203125 13.35546875 C -11.23363281 12.28232422 -11.23363281 12.28232422 -10.125 11.1875 C -9.40570313 10.47980469 -8.68640625 9.77210938 -7.9453125 9.04296875 C -5.84641063 6.95600806 -5.84641063 6.95600806 -4 4 C -3.01 4 -2.02 4 -1 4 C -0.67 2.68 -0.34 1.36 0 0 Z" stroke-linecap="round"></path>
</g>
		<g transform="matrix(1 0 0 1 28.5 121.9717)">
<path style="stroke: none; stroke-width: 1; stroke-dasharray: none; stroke-linecap: butt; stroke-dashoffset: 0; stroke-linejoin: miter; stroke-miterlimit: 4; is-custom-font: none; font-file-url: none; fill: rgb(113,150,172); fill-rule: nonzero; opacity: 1;" transform=" translate(15, -4.4717)" d="M 0 0 C -0.556875 0.268125 -1.11375 0.53625 -1.6875 0.8125 C -4.07880579 1.99088683 -4.07880579 1.99088683 -6.5 3.625 C -9 5 -9 5 -13 5 C -13 5.66 -13 6.32 -13 7 C -15.31 7 -17.62 7 -20 7 C -20 7.66 -20 8.32 -20 9 C -23.3 9 -26.6 9 -30 9 C -30 8.67 -30 8.34 -30 8 C -20.58997722 5.70387244 -20.58997722 5.70387244 -16 6 C -16 5.34 -16 4.68 -16 4 C -14.274773 3.32320342 -12.54461061 2.65898 -10.8125 2 C -9.36810547 1.443125 -9.36810547 1.443125 -7.89453125 0.875 C -5.07817642 0.02363228 -2.91835561 -0.17072647 0 0 Z" stroke-linecap="round"></path>
</g>
		<g transform="matrix(1 0 0 1 -81.5 -22.5567)">
<path style="stroke: none; stroke-width: 1; stroke-dasharray: none; stroke-linecap: butt; stroke-dashoffset: 0; stroke-linejoin: miter; stroke-miterlimit: 4; is-custom-font: none; font-file-url: none; fill: rgb(178,192,200); fill-rule: nonzero; opacity: 1;" transform=" translate(-3.7751, -2.0568)" d="M 0 0 C 0.9583374 0.00523682 1.9166748 0.01047363 2.90405273 0.01586914 C 4.45576172 0.02070313 4.45576172 0.02070313 6.03881836 0.02563477 C 7.12743164 0.03401367 8.21604492 0.04239258 9.33764648 0.05102539 C 10.97636719 0.05779297 10.97636719 0.05779297 12.64819336 0.06469727 C 15.35723144 0.07652713 18.06616248 0.09300996 20.77514648 0.11352539 C 20.77514648 0.44352539 20.77514648 0.77352539 20.77514648 1.11352539 C 3.94514648 2.59852539 3.94514648 2.59852539 -13.22485352 4.11352539 C -13.22485352 3.45352539 -13.22485352 2.79352539 -13.22485352 2.11352539 C -12.51458008 2.05293945 -11.80430664 1.99235352 -11.07250977 1.92993164 C -9.69385742 1.80424805 -9.69385742 1.80424805 -8.28735352 1.67602539 C -7.37083008 1.59481445 -6.45430664 1.51360352 -5.51000977 1.42993164 C -2.91176772 1.07017505 -2.60477248 0.13291114 0 0 Z" stroke-linecap="round"></path>
</g>
		<g transform="matrix(1 0 0 1 107.0648 0)">
<path style="stroke: none; stroke-width: 1; stroke-dasharray: none; stroke-linecap: butt; stroke-dashoffset: 0; stroke-linejoin: miter; stroke-miterlimit: 4; is-custom-font: none; font-file-url: none; fill: rgb(198,207,213); fill-rule: nonzero; opacity: 1;" transform=" translate(-1.5648, -21.5)" d="M 0 0 C 0.33 0 0.66 0 1 0 C 2.78117801 5.34661566 3.27243829 9.94500229 3.1953125 15.55859375 C 3.1924826 16.34774673 3.18965271 17.13689972 3.18673706 17.94996643 C 3.17563057 20.44597172 3.15054455 22.94160498 3.125 25.4375 C 3.11495785 27.13996874 3.10583417 28.84244316 3.09765625 30.54492188 C 3.0757226 34.69675576 3.04125977 38.84831502 3 43 C 2.67 43 2.34 43 2 43 C 1.97494385 41.97527588 1.9498877 40.95055176 1.92407227 39.89477539 C 1.83015516 36.10590324 1.72989683 32.31722119 1.62768555 28.52856445 C 1.58427703 26.88635697 1.54260642 25.24410261 1.50268555 23.60180664 C 1.4451256 21.24611255 1.38139108 18.89065572 1.31640625 16.53515625 C 1.29133751 15.42733543 1.29133751 15.42733543 1.26576233 14.2971344 C 1.46451987 10.85699373 1.46451987 10.85699373 0 8 C -0.14115161 5.32941149 -0.04247107 2.67567762 0 0 Z" stroke-linecap="round"></path>
</g>
		<g transform="matrix(1 0 0 1 51 -105)">
<path style="stroke: none; stroke-width: 1; stroke-dasharray: none; stroke-linecap: butt; stroke-dashoffset: 0; stroke-linejoin: miter; stroke-miterlimit: 4; is-custom-font: none; font-file-url: none; fill: rgb(119,154,175); fill-rule: nonzero; opacity: 1;" transform=" translate(-12.5, -6.5)" d="M 0 0 C 2.475 0.495 2.475 0.495 5 1 C 5 1.66 5 2.32 5 3 C 5.56976563 3.12632813 6.13953125 3.25265625 6.7265625 3.3828125 C 12.68576317 5.00060237 18.61122679 8.03617473 24 11 C 24.33 11.66 24.66 12.32 25 13 C 21.7 12.01 18.4 11.02 15 10 C 15 9.34 15 8.68 15 8 C 13.35 8 11.7 8 10 8 C 10 7.34 10 6.68 10 6 C 8.68 6 7.36 6 6 6 C 6 5.34 6 4.68 6 4 C 5.195625 3.71125 4.39125 3.4225 3.5625 3.125 C 1 2 1 2 0 0 Z" stroke-linecap="round"></path>
</g>
		<g transform="matrix(1 0 0 1 -45.5 92.5)">
<path style="stroke: none; stroke-width: 1; stroke-dasharray: none; stroke-linecap: butt; stroke-dashoffset: 0; stroke-linejoin: miter; stroke-miterlimit: 4; is-custom-font: none; font-file-url: none; fill: rgb(132,164,182); fill-rule: nonzero; opacity: 1;" transform=" translate(8, -6)" d="M 0 0 C 0.66 0.33 1.32 0.66 2 1 C 0.9171875 1.804375 0.9171875 1.804375 -0.1875 2.625 C -3.14118009 4.92685425 -3.14118009 4.92685425 -5.3125 8.1875 C -8.91514536 11.95771026 -10.90776814 11.82738197 -16 12 C -16 10.68 -16 9.36 -16 8 C -16.66 8 -17.32 8 -18 8 C -17.67 7.34 -17.34 6.68 -17 6 C -16.34 6.33 -15.68 6.66 -15 7 C -15 8.32 -15 9.64 -15 11 C -14.01 11 -13.02 11 -12 11 C -12 10.34 -12 9.68 -12 9 C -10.35 8.34 -8.7 7.68 -7 7 C -7 6.34 -7 5.68 -7 5 C -5.46875 3.7109375 -5.46875 3.7109375 -3.5 2.375 C -2.8503125 1.92898437 -2.200625 1.48296875 -1.53125 1.0234375 C -1.0259375 0.68570313 -0.520625 0.34796875 0 0 Z" stroke-linecap="round"></path>
</g>
		<g transform="matrix(1 0 0 1 21.5 114.6396)">
<path style="stroke: none; stroke-width: 1; stroke-dasharray: none; stroke-linecap: butt; stroke-dashoffset: 0; stroke-linejoin: miter; stroke-miterlimit: 4; is-custom-font: none; font-file-url: none; fill: rgb(133,162,179); fill-rule: nonzero; opacity: 1;" transform=" translate(11, -2.1397)" d="M 0 0 C -2.61556575 3.38484979 -5.91612322 4.38316444 -10 5 C -14.00644297 5.15524967 -17.99297319 5.11843429 -22 5 C -19.42999868 3.6118648 -17.7684582 2.96821975 -14.8125 2.5625 C -10.90940386 1.98663336 -7.59395119 0.90272179 -3.91796875 -0.4765625 C -2 -1 -2 -1 0 0 Z" stroke-linecap="round"></path>
</g>
		<g transform="matrix(1 0 0 1 -65.6548 9.5)">
<path style="stroke: none; stroke-width: 1; stroke-dasharray: none; stroke-linecap: butt; stroke-dashoffset: 0; stroke-linejoin: miter; stroke-miterlimit: 4; is-custom-font: none; font-file-url: none; fill: rgb(119,156,178); fill-rule: nonzero; opacity: 1;" transform=" translate(4.1548, -13)" d="M 0 0 C 1.36219168 3.67791752 0.53943019 5.49352013 -1 9 C -1.36871088 10.65919896 -1.71281674 12.3247643 -2 14 C -2.66 14 -3.32 14 -4 14 C -4 15.65 -4 17.3 -4 19 C -4.66 19 -5.32 19 -6 19 C -6.12375 19.78375 -6.2475 20.5675 -6.375 21.375 C -7 24 -7 24 -9 26 C -8.25 19.25 -8.25 19.25 -6 17 C -3.64894718 12.29789435 -2.93590636 7.12757208 -2 2 C -1.34 2 -0.68 2 0 2 C 0 1.34 0 0.68 0 0 Z" stroke-linecap="round"></path>
</g>
		<g transform="matrix(1 0 0 1 -15 -20)">
<path style="stroke: none; stroke-width: 1; stroke-dasharray: none; stroke-linecap: butt; stroke-dashoffset: 0; stroke-linejoin: miter; stroke-miterlimit: 4; is-custom-font: none; font-file-url: none; fill: rgb(178,192,200); fill-rule: nonzero; opacity: 1;" transform=" translate(-13.5, -3.5)" d="M 0 0 C 2.95888673 0.30784377 5.91703167 0.62105574 8.875 0.9375 C 9.71675781 1.02451172 10.55851563 1.11152344 11.42578125 1.20117188 C 12.23144531 1.28818359 13.03710938 1.37519531 13.8671875 1.46484375 C 14.61081543 1.543396 15.35444336 1.62194824 16.12060547 1.70288086 C 18 2 18 2 20 3 C 20 3.66 20 4.32 20 5 C 22.31 5 24.62 5 27 5 C 27 5.66 27 6.32 27 7 C 21.58215544 6.6363021 17.06688742 5.77735553 12.05859375 3.69140625 C 9.01102626 2.66783994 5.98050324 2.48946245 2.78515625 2.30859375 C 2.19605469 2.20675781 1.60695312 2.10492188 1 2 C 0.67 1.34 0.34 0.68 0 0 Z" stroke-linecap="round"></path>
</g>
		<g transform="matrix(1 0 0 1 91.1145 -44)">
<path style="stroke: none; stroke-width: 1; stroke-dasharray: none; stroke-linecap: butt; stroke-dashoffset: 0; stroke-linejoin: miter; stroke-miterlimit: 4; is-custom-font: none; font-file-url: none; fill: rgb(116,152,174); fill-rule: nonzero; opacity: 1;" transform=" translate(0.3856, -9.5)" d="M 0 0 C 1.32 0 2.64 0 4 0 C 4.33 1.98 4.66 3.96 5 6 C 2.525 5.01 2.525 5.01 0 4 C 0.0515625 4.71542969 0.103125 5.43085937 0.15625 6.16796875 C -0.02602747 9.47174781 -0.95027242 11.40676078 -2.5 14.3125 C -2.9640625 15.19550781 -3.428125 16.07851562 -3.90625 16.98828125 C -4.44765625 17.98408203 -4.44765625 17.98408203 -5 19 C -6.33332095 16.3333581 -5.67102033 14.83319697 -5 12 C -4.34 12 -3.68 12 -3 12 C -3 10.35 -3 8.7 -3 7 C -2.34 7 -1.68 7 -1 7 C -0.67 4.69 -0.34 2.38 0 0 Z" stroke-linecap="round"></path>
</g>
		<g transform="matrix(1 0 0 1 -71 -99)">
<path style="stroke: none; stroke-width: 1; stroke-dasharray: none; stroke-linecap: butt; stroke-dashoffset: 0; stroke-linejoin: miter; stroke-miterlimit: 4; is-custom-font: none; font-file-url: none; fill: rgb(98,142,168); fill-rule: nonzero; opacity: 1;" transform=" translate(8.5, -5.5)" d="M 0 0 C 0 0.99 0 1.98 0 3 C -3 5 -3 5 -7 5 C -7 5.66 -7 6.32 -7 7 C -8.28650706 7.69710731 -9.57940665 8.38242876 -10.875 9.0625 C -11.59429687 9.44535156 -12.31359375 9.82820313 -13.0546875 10.22265625 C -13.69664063 10.47917969 -14.33859375 10.73570313 -15 11 C -15.66 10.67 -16.32 10.34 -17 10 C -15.02579865 7.47740939 -14.03254358 7.0070192 -10.8125 6.3125 C -9.884375 6.209375 -8.95625 6.10625 -8 6 C -8 5.01 -8 4.02 -8 3 C -2.25 0 -2.25 0 0 0 Z" stroke-linecap="round"></path>
</g>
		<g transform="matrix(1 0 0 1 -75.5064 49)">
<path style="stroke: none; stroke-width: 1; stroke-dasharray: none; stroke-linecap: butt; stroke-dashoffset: 0; stroke-linejoin: miter; stroke-miterlimit: 4; is-custom-font: none; font-file-url: none; fill: rgb(142,167,182); fill-rule: nonzero; opacity: 1;" transform=" translate(1.0063, -11.5)" d="M 0 0 C 0.33 0 0.66 0 1 0 C 1.48350422 7.89723556 -0.32335279 15.33532703 -2 23 C -2.33 23 -2.66 23 -3 23 C -3.38750039 14.7763806 -2.58716898 7.8231062 0 0 Z" stroke-linecap="round"></path>
</g>
		<g transform="matrix(1 0 0 1 56 -9)">
<path style="stroke: none; stroke-width: 1; stroke-dasharray: none; stroke-linecap: butt; stroke-dashoffset: 0; stroke-linejoin: miter; stroke-miterlimit: 4; is-custom-font: none; font-file-url: none; fill: rgb(118,154,175); fill-rule: nonzero; opacity: 1;" transform=" translate(-6.5, -4.5)" d="M 0 0 C 0.99 0.495 0.99 0.495 2 1 C 2 1.99 2 2.98 2 4 C 2.99 4 3.98 4 5 4 C 5 4.66 5 5.32 5 6 C 6.98 5.67 8.96 5.34 11 5 C 11.33 3.68 11.66 2.36 12 1 C 12.33 1.66 12.66 2.32 13 3 C 12.06553465 5.03144641 11.06775224 7.03533587 10 9 C 3.54847841 8.51309271 3.54847841 8.51309271 1.0625 6.1875 C 0 4 0 4 0 0 Z" stroke-linecap="round"></path>
</g>
		<g transform="matrix(1 0 0 1 74.38 -34.5)">
<path style="stroke: none; stroke-width: 1; stroke-dasharray: none; stroke-linecap: butt; stroke-dashoffset: 0; stroke-linejoin: miter; stroke-miterlimit: 4; is-custom-font: none; font-file-url: none; fill: rgb(149,175,190); fill-rule: nonzero; opacity: 1;" transform=" translate(5.12, -12)" d="M 0 0 C 1.02897938 3.18824775 1.1106885 3.75737334 -0.36328125 6.98828125 C -1.32814453 8.63376953 -1.32814453 8.63376953 -2.3125 10.3125 C -4.9822768 14.8884866 -6.72729671 18.90272641 -8 24 C -8.99 24 -9.98 24 -11 24 C -9.71882993 20.72618005 -8.34728693 17.52930256 -6.8359375 14.35546875 C -6.23652344 13.09379883 -6.23652344 13.09379883 -5.625 11.80664062 C -5.2125 10.94232422 -4.8 10.07800781 -4.375 9.1875 C -3.95476562 8.30384766 -3.53453125 7.42019531 -3.1015625 6.50976562 C -2.06907239 4.33918982 -1.0351788 2.16929448 0 0 Z" stroke-linecap="round"></path>
</g>
		<g transform="matrix(1 0 0 1 -6.5 -48.9512)">
<path style="stroke: none; stroke-width: 1; stroke-dasharray: none; stroke-linecap: butt; stroke-dashoffset: 0; stroke-linejoin: miter; stroke-miterlimit: 4; is-custom-font: none; font-file-url: none; fill: rgb(117,155,177); fill-rule: nonzero; opacity: 1;" transform=" translate(-10, -1.5488)" d="M 0 0 C 6.6 0 13.2 0 20 0 C 19.67 0.99 19.34 1.98 19 3 C 16.93757383 3.02717692 14.87504297 3.0464758 12.8125 3.0625 C 11.66394531 3.07410156 10.51539063 3.08570312 9.33203125 3.09765625 C 6.38479964 3.01127783 3.82783048 2.82198363 1 2 C 0.67 1.34 0.34 0.68 0 0 Z" stroke-linecap="round"></path>
</g>
		<g transform="matrix(1 0 0 1 -32.5 -115.5)">
<path style="stroke: none; stroke-width: 1; stroke-dasharray: none; stroke-linecap: butt; stroke-dashoffset: 0; stroke-linejoin: miter; stroke-miterlimit: 4; is-custom-font: none; font-file-url: none; fill: rgb(212,217,220); fill-rule: nonzero; opacity: 1;" transform=" translate(1, -3)" d="M 0 0 C 3.96 0 7.92 0 12 0 C 12 0.33 12 0.66 12 1 C 10.96101563 1.19335938 9.92203125 1.38671875 8.8515625 1.5859375 C 1.2242759 3.00873389 -6.3979502 4.44669656 -14 6 C -13 4 -13 4 -10.375 2.875 C -6.78189212 1.94345351 -3.69584376 1.85216625 0 2 C 0 1.34 0 0.68 0 0 Z" stroke-linecap="round"></path>
</g>
		<g transform="matrix(1 0 0 1 22 0.5)">
<path style="stroke: none; stroke-width: 1; stroke-dasharray: none; stroke-linecap: butt; stroke-dashoffset: 0; stroke-linejoin: miter; stroke-miterlimit: 4; is-custom-font: none; font-file-url: none; fill: rgb(113,150,171); fill-rule: nonzero; opacity: 1;" transform=" translate(-8.5, -4)" d="M 0 0 C 8.89655172 0.88965517 8.89655172 0.88965517 12 3 C 12.33 3.66 12.66 4.32 13 5 C 15.01669827 6.13350534 15.01669827 6.13350534 17 7 C 15.24609375 7.64453125 15.24609375 7.64453125 13 8 C 11.03515625 7.07421875 11.03515625 7.07421875 9.0625 5.6875 C 6.11834841 3.70638865 3.37859023 2.16139039 0 1 C 0 0.67 0 0.34 0 0 Z" stroke-linecap="round"></path>
</g>
		<g transform="matrix(1 0 0 1 -44 -2)">
<path style="stroke: none; stroke-width: 1; stroke-dasharray: none; stroke-linecap: butt; stroke-dashoffset: 0; stroke-linejoin: miter; stroke-miterlimit: 4; is-custom-font: none; font-file-url: none; fill: rgb(97,142,168); fill-rule: nonzero; opacity: 1;" transform=" translate(9.5, -4.5)" d="M 0 0 C 0 0.66 0 1.32 0 2 C -4.60566951 4.09729941 -8.57576384 4.3121337 -13.57421875 4.4609375 C -16.16975954 4.74132656 -16.16975954 4.74132656 -17.33203125 7.0390625 C -17.55246094 7.68617188 -17.77289063 8.33328125 -18 9 C -18.5534764 6.92446352 -19 5.15634036 -19 3 C -17.41058594 2.80083984 -17.41058594 2.80083984 -15.7890625 2.59765625 C -14.40101721 2.41946125 -13.01299769 2.2410654 -11.625 2.0625 C -10.92632812 1.97548828 -10.22765625 1.88847656 -9.5078125 1.79882812 C -6.2726175 1.37887493 -3.13085652 0 0 0 Z" stroke-linecap="round"></path>
</g>
		<g transform="matrix(1 0 0 1 113.5 -30)">
<path style="stroke: none; stroke-width: 1; stroke-dasharray: none; stroke-linecap: butt; stroke-dashoffset: 0; stroke-linejoin: miter; stroke-miterlimit: 4; is-custom-font: none; font-file-url: none; fill: rgb(170,186,196); fill-rule: nonzero; opacity: 1;" transform=" translate(-4, -12.5)" d="M 0 0 C 3.13352847 3.27596159 3.70833311 6.56230033 4.47265625 10.87890625 C 4.94292277 13.28007496 4.94292277 13.28007496 7 16 C 7.4140625 18.26171875 7.4140625 18.26171875 7.625 20.6875 C 7.69976562 21.49574219 7.77453125 22.30398437 7.8515625 23.13671875 C 7.92503906 24.05904297 7.92503906 24.05904297 8 25 C 3.438158 18.15723699 0 8.25331243 0 0 Z" stroke-linecap="round"></path>
</g>
		<g transform="matrix(1 0 0 1 -113 -54.5)">
<path style="stroke: none; stroke-width: 1; stroke-dasharray: none; stroke-linecap: butt; stroke-dashoffset: 0; stroke-linejoin: miter; stroke-miterlimit: 4; is-custom-font: none; font-file-url: none; fill: rgb(120,155,176); fill-rule: nonzero; opacity: 1;" transform=" translate(4.5, -9)" d="M 0 0 C 0 3.61029169 -0.96092582 6.55806676 -2 10 C -2.66 10 -3.32 10 -4 10 C -4 10.99 -4 11.98 -4 13 C -4.66 13 -5.32 13 -6 13 C -6 14.32 -6 15.64 -6 17 C -6.99 17.33 -7.98 17.66 -9 18 C -8.48710829 13.5121975 -6.79715272 11.4553063 -4 8 C -2.88183467 5.70507552 -1.95696143 3.36961877 -1 1 C -0.67 0.67 -0.34 0.34 0 0 Z" stroke-linecap="round"></path>
</g>
		<g transform="matrix(1 0 0 1 -31.5 114.5024)">
<path style="stroke: none; stroke-width: 1; stroke-dasharray: none; stroke-linecap: butt; stroke-dashoffset: 0; stroke-linejoin: miter; stroke-miterlimit: 4; is-custom-font: none; font-file-url: none; fill: rgb(166,183,193); fill-rule: nonzero; opacity: 1;" transform=" translate(-10, -2.0024)" d="M 0 0 C 7.08076251 -0.40850553 13.19925959 1.09579269 20 3 C 20 3.33 20 3.66 20 4 C 12.92445235 4.25729264 6.02977369 4.01984912 0 0 Z" stroke-linecap="round"></path>
</g>
		<g transform="matrix(1 0 0 1 54.6035 13.6528)">
<path style="stroke: none; stroke-width: 1; stroke-dasharray: none; stroke-linecap: butt; stroke-dashoffset: 0; stroke-linejoin: miter; stroke-miterlimit: 4; is-custom-font: none; font-file-url: none; fill: rgb(65,101,125); fill-rule: nonzero; opacity: 1;" transform=" translate(5.8965, -6.1528)" d="M 0 0 C 0.66 0 1.32 0 2 0 C 2.40877691 4.16952449 2.40933517 6.35870823 0.125 9.9375 C -4.24659272 12.82275119 -7.90789339 12.44494135 -13 12 C -13.33 11.34 -13.66 10.68 -14 10 C -13.07767578 10.01740234 -13.07767578 10.01740234 -12.13671875 10.03515625 C -10.92435547 10.04869141 -10.92435547 10.04869141 -9.6875 10.0625 C -8.88699219 10.07410156 -8.08648437 10.08570313 -7.26171875 10.09765625 C -4.83138666 10.09657855 -4.83138666 10.09657855 -2 9 C -1.19436362 6.89415562 -1.19436362 6.89415562 -0.8125 4.4375 C -0.57466797 3.19806641 -0.57466797 3.19806641 -0.33203125 1.93359375 C -0.22246094 1.29550781 -0.11289063 0.65742188 0 0 Z" stroke-linecap="round"></path>
</g>
		<g transform="matrix(1 0 0 1 34 15)">
<path style="stroke: none; stroke-width: 1; stroke-dasharray: none; stroke-linecap: butt; stroke-dashoffset: 0; stroke-linejoin: miter; stroke-miterlimit: 4; is-custom-font: none; font-file-url: none; fill: rgb(155,179,192); fill-rule: nonzero; opacity: 1;" transform=" translate(-2.5, -9.5)" d="M 0 0 C 1.32 0 2.64 0 4 0 C 4.33 5.94 4.66 11.88 5 18 C 4.34 18.33 3.68 18.66 3 19 C 2.95101562 18.38253906 2.90203125 17.76507813 2.8515625 17.12890625 C 2.33391578 11.26521841 1.38417877 5.72127225 0 0 Z" stroke-linecap="round"></path>
</g>
		<g transform="matrix(1 0 0 1 -6.5 -81.1445)">
<path style="stroke: none; stroke-width: 1; stroke-dasharray: none; stroke-linecap: butt; stroke-dashoffset: 0; stroke-linejoin: miter; stroke-miterlimit: 4; is-custom-font: none; font-file-url: none; fill: rgb(136,164,180); fill-rule: nonzero; opacity: 1;" transform=" translate(9, -0.3556)" d="M 0 0 C -3.96 0 -7.92 0 -12 0 C -12 0.66 -12 1.32 -12 2 C -13.98 2.33 -15.96 2.66 -18 3 C -18 2.34 -18 1.68 -18 1 C -12.61519922 -2.58986718 -5.54563944 -3.69709296 0 0 Z" stroke-linecap="round"></path>
</g>
		<g transform="matrix(1 0 0 1 0.5 46.5)">
<path style="stroke: none; stroke-width: 1; stroke-dasharray: none; stroke-linecap: butt; stroke-dashoffset: 0; stroke-linejoin: miter; stroke-miterlimit: 4; is-custom-font: none; font-file-url: none; fill: rgb(181,195,202); fill-rule: nonzero; opacity: 1;" transform=" translate(-5, -2)" d="M 0 0 C 4.29 0 8.58 0 13 0 C 13 0.66 13 1.32 13 2 C 7.72 2.66 2.44 3.32 -3 4 C -3 3.34 -3 2.68 -3 2 C -2.01 2 -1.02 2 0 2 C 0 1.34 0 0.68 0 0 Z" stroke-linecap="round"></path>
</g>
		<g transform="matrix(1 0 0 1 29.5 -90)">
<path style="stroke: none; stroke-width: 1; stroke-dasharray: none; stroke-linecap: butt; stroke-dashoffset: 0; stroke-linejoin: miter; stroke-miterlimit: 4; is-custom-font: none; font-file-url: none; fill: rgb(76,129,160); fill-rule: nonzero; opacity: 1;" transform=" translate(7, -4.5)" d="M 0 0 C 0.66 0.33 1.32 0.66 2 1 C 1.01 1.33 0.02 1.66 -1 2 C -1 2.66 -1 3.32 -1 4 C -1.94875 4.28875 -2.8975 4.5775 -3.875 4.875 C -7.05211578 5.76825109 -7.05211578 5.76825109 -9 8 C -11.32275177 8.40047444 -13.65739357 8.7397104 -16 9 C -14.34761036 5.69522072 -10.79218424 4.80060013 -7.5625 3.3125 C -6.86833984 2.97927734 -6.17417969 2.64605469 -5.45898438 2.30273438 C -3.66862934 1.46908406 -1.83610869 0.72735747 0 0 Z" stroke-linecap="round"></path>
</g>
		<g transform="matrix(1 0 0 1 -124.5367 -20.5)">
<path style="stroke: none; stroke-width: 1; stroke-dasharray: none; stroke-linecap: butt; stroke-dashoffset: 0; stroke-linejoin: miter; stroke-miterlimit: 4; is-custom-font: none; font-file-url: none; fill: rgb(79,131,163); fill-rule: nonzero; opacity: 1;" transform=" translate(1.0367, -10)" d="M 0 0 C 1.43449075 2.86898151 0.92889162 5.13117462 0.6875 8.3125 C 0.60886719 9.44300781 0.53023438 10.57351562 0.44921875 11.73828125 C 0.02542555 14.81538837 -0.70899373 17.19140269 -2 20 C -2.33 20 -2.66 20 -3 20 C -3.24613739 13.47735909 -2.53020433 7.35537418 -1 1 C -0.67 0.67 -0.34 0.34 0 0 Z" stroke-linecap="round"></path>
</g>
		<g transform="matrix(1 0 0 1 -37 -77.5)">
<path style="stroke: none; stroke-width: 1; stroke-dasharray: none; stroke-linecap: butt; stroke-dashoffset: 0; stroke-linejoin: miter; stroke-miterlimit: 4; is-custom-font: none; font-file-url: none; fill: rgb(119,155,176); fill-rule: nonzero; opacity: 1;" transform=" translate(-6.5, -3)" d="M 0 0 C 9.09677419 0.90967742 9.09677419 0.90967742 12 3 C 12.33 3.99 12.66 4.98 13 6 C 11.01739401 5.57835981 9.03892755 5.13721222 7.0625 4.6875 C 5.96035156 4.44386719 4.85820312 4.20023437 3.72265625 3.94921875 C 2.82417969 3.63597656 1.92570313 3.32273437 1 3 C 0.67 2.01 0.34 1.02 0 0 Z" stroke-linecap="round"></path>
</g>
		<g transform="matrix(1 0 0 1 -107.5 -17.9375)">
<path style="stroke: none; stroke-width: 1; stroke-dasharray: none; stroke-linecap: butt; stroke-dashoffset: 0; stroke-linejoin: miter; stroke-miterlimit: 4; is-custom-font: none; font-file-url: none; fill: rgb(127,158,176); fill-rule: nonzero; opacity: 1;" transform=" translate(1, -2.5625)" d="M 0 0 C 2.64 0 5.28 0 8 0 C 3.66279827 4.14862774 -2.26713577 4.88845452 -8.0625 5.125 C -8.701875 5.08375 -9.34125 5.0425 -10 5 C -6.73454239 3.11608215 -3.71888239 2.50712033 0 2 C 0 1.34 0 0.68 0 0 Z" stroke-linecap="round"></path>
</g>
		<g transform="matrix(1 0 0 1 -38.5 -103.5)">
<path style="stroke: none; stroke-width: 1; stroke-dasharray: none; stroke-linecap: butt; stroke-dashoffset: 0; stroke-linejoin: miter; stroke-miterlimit: 4; is-custom-font: none; font-file-url: none; fill: rgb(180,193,201); fill-rule: nonzero; opacity: 1;" transform=" translate(4, -3)" d="M 0 0 C 2.0625 0.4375 2.0625 0.4375 4 1 C 1.22420239 3.77579761 -1.30306937 3.86061387 -5.125 4.625 C -6.40632812 4.88539062 -7.68765625 5.14578125 -9.0078125 5.4140625 C -9.99523437 5.60742188 -10.98265625 5.80078125 -12 6 C -11.67 5.34 -11.34 4.68 -11 4 C -10.01 4 -9.02 4 -8 4 C -8 3.34 -8 2.68 -8 2 C -6.2984375 1.7834375 -6.2984375 1.7834375 -4.5625 1.5625 C -1.19222799 1.38828522 -1.19222799 1.38828522 0 0 Z" stroke-linecap="round"></path>
</g>
		<g transform="matrix(1 0 0 1 57.5778 40.5)">
<path style="stroke: none; stroke-width: 1; stroke-dasharray: none; stroke-linecap: butt; stroke-dashoffset: 0; stroke-linejoin: miter; stroke-miterlimit: 4; is-custom-font: none; font-file-url: none; fill: rgb(176,194,205); fill-rule: nonzero; opacity: 1;" transform=" translate(-2.0778, -11)" d="M 0 0 C 2 1 2 1 3.125 4.25 C 4.4891763 10.09037979 4.16347998 16.042063 4 22 C 3.67 22 3.34 22 3 22 C 3 18.37 3 14.74 3 11 C 2.34 11 1.68 11 1 11 C 0.67 7.37 0.34 3.74 0 0 Z" stroke-linecap="round"></path>
</g>
		<g transform="matrix(1 0 0 1 52 28.1435)">
<path style="stroke: none; stroke-width: 1; stroke-dasharray: none; stroke-linecap: butt; stroke-dashoffset: 0; stroke-linejoin: miter; stroke-miterlimit: 4; is-custom-font: none; font-file-url: none; fill: rgb(83,130,158); fill-rule: nonzero; opacity: 1;" transform=" translate(5.5, -1.6436)" d="M 0 0 C -0.33 1.32 -0.66 2.64 -1 4 C -1.33 3.67 -1.66 3.34 -2 3 C -3.51469448 2.76807135 -5.03754562 2.58784762 -6.5625 2.4375 C -7.38878906 2.35371094 -8.21507812 2.26992187 -9.06640625 2.18359375 C -9.70449219 2.12300781 -10.34257812 2.06242188 -11 2 C -11 1.34 -11 0.68 -11 0 C -6.98195309 -0.84098656 -3.98196457 -1.05404945 0 0 Z" stroke-linecap="round"></path>
</g>
		<g transform="matrix(1 0 0 1 -33 -44.5)">
<path style="stroke: none; stroke-width: 1; stroke-dasharray: none; stroke-linecap: butt; stroke-dashoffset: 0; stroke-linejoin: miter; stroke-miterlimit: 4; is-custom-font: none; font-file-url: none; fill: rgb(118,155,177); fill-rule: nonzero; opacity: 1;" transform=" translate(3.5, -6)" d="M 0 0 C 0.66 0.33 1.32 0.66 2 1 C 1.54625 1.391875 1.0925 1.78375 0.625 2.1875 C -1.27642919 4.30832487 -2.06204028 6.33042235 -3 9 C -3.99 9 -4.98 9 -6 9 C -6 9.99 -6 10.98 -6 12 C -6.99 12 -7.98 12 -9 12 C -9 11.34 -9 10.68 -9 10 C -8.34 10 -7.68 10 -7 10 C -6.773125 9.46375 -6.54625 8.9275 -6.3125 8.375 C -4.56617944 5.21499137 -2.3597151 2.7323017 0 0 Z" stroke-linecap="round"></path>
</g>
		<g transform="matrix(1 0 0 1 -31 -106.5372)">
<path style="stroke: none; stroke-width: 1; stroke-dasharray: none; stroke-linecap: butt; stroke-dashoffset: 0; stroke-linejoin: miter; stroke-miterlimit: 4; is-custom-font: none; font-file-url: none; fill: rgb(81,130,159); fill-rule: nonzero; opacity: 1;" transform=" translate(8.5, -1.9629)" d="M 0 0 C -2.99211885 1.9947459 -3.96465988 2.28897443 -7.375 2.5625 C -10.64360612 2.86110023 -13.79242599 3.27570909 -17 4 C -16.34 3.67 -15.68 3.34 -15 3 C -15 2.34 -15 1.68 -15 1 C -10.03926578 -0.32286246 -5.08888488 -0.08893197 0 0 Z" stroke-linecap="round"></path>
</g>
		<g transform="matrix(1 0 0 1 -29 94)">
<path style="stroke: none; stroke-width: 1; stroke-dasharray: none; stroke-linecap: butt; stroke-dashoffset: 0; stroke-linejoin: miter; stroke-miterlimit: 4; is-custom-font: none; font-file-url: none; fill: rgb(160,179,191); fill-rule: nonzero; opacity: 1;" transform=" translate(5.5, -5.5)" d="M 0 0 C 0.66 0.33 1.32 0.66 2 1 C 0.54634731 2.17249353 -0.91307419 3.33783816 -2.375 4.5 C -3.59316406 5.47453125 -3.59316406 5.47453125 -4.8359375 6.46875 C -7 8 -7 8 -9 8 C -9.33 8.99 -9.66 9.98 -10 11 C -10.99 11 -11.98 11 -13 11 C -13 10.34 -13 9.68 -13 9 C -11.0700569 7.5765578 -9.0796509 6.23440799 -7.0625 4.9375 C -3.34860293 2.70667733 -3.34860293 2.70667733 0 0 Z" stroke-linecap="round"></path>
</g>
		<g transform="matrix(1 0 0 1 -66 -87.5185)">
<path style="stroke: none; stroke-width: 1; stroke-dasharray: none; stroke-linecap: butt; stroke-dashoffset: 0; stroke-linejoin: miter; stroke-miterlimit: 4; is-custom-font: none; font-file-url: none; fill: rgb(87,134,162); fill-rule: nonzero; opacity: 1;" transform=" translate(-6.5, -1.9815)" d="M 0 0 C 5.75 -0.125 5.75 -0.125 8 1 C 8 1.66 8 2.32 8 3 C 9.98 3 11.96 3 14 3 C 14 3.33 14 3.66 14 4 C 8.84828377 4.09038099 4.08086796 3.84681133 -1 3 C -0.67 2.01 -0.34 1.02 0 0 Z" stroke-linecap="round"></path>
</g>
		<g transform="matrix(1 0 0 1 -122 42)">
<path style="stroke: none; stroke-width: 1; stroke-dasharray: none; stroke-linecap: butt; stroke-dashoffset: 0; stroke-linejoin: miter; stroke-miterlimit: 4; is-custom-font: none; font-file-url: none; fill: rgb(115,153,175); fill-rule: nonzero; opacity: 1;" transform=" translate(-2.5, -7.5)" d="M 0 0 C 0.99 0 1.98 0 3 0 C 3.66 4.95 4.32 9.9 5 15 C 3 14 3 14 2.1484375 11.85546875 C 1.89320312 10.97503906 1.63796875 10.09460938 1.375 9.1875 C 1.11460938 8.31480469 0.85421875 7.44210938 0.5859375 6.54296875 C 0 4 0 4 0 0 Z" stroke-linecap="round"></path>
</g>
		<g transform="matrix(1 0 0 1 -18.5 -19.436)">
<path style="stroke: none; stroke-width: 1; stroke-dasharray: none; stroke-linecap: butt; stroke-dashoffset: 0; stroke-linejoin: miter; stroke-miterlimit: 4; is-custom-font: none; font-file-url: none; fill: rgb(70,123,155); fill-rule: nonzero; opacity: 1;" transform=" translate(-8, -2.0639)" d="M 0 0 C 6.20970773 -0.33266291 10.28264895 0.54970669 16 3 C 16 3.33 16 3.66 16 4 C 14.741875 4.04125 13.48375 4.0825 12.1875 4.125 C 11.47980469 4.14820313 10.77210938 4.17140625 10.04296875 4.1953125 C 8 4 8 4 5 2 C 3.34450469 1.61500109 1.6777567 1.27206865 0 1 C 0 0.67 0 0.34 0 0 Z" stroke-linecap="round"></path>
</g>
		<g transform="matrix(1 0 0 1 104 -30)">
<path style="stroke: none; stroke-width: 1; stroke-dasharray: none; stroke-linecap: butt; stroke-dashoffset: 0; stroke-linejoin: miter; stroke-miterlimit: 4; is-custom-font: none; font-file-url: none; fill: rgb(83,132,161); fill-rule: nonzero; opacity: 1;" transform=" translate(-2.5, -8.5)" d="M 0 0 C 0.66 0 1.32 0 2 0 C 2 1.65 2 3.3 2 5 C 2.66 5 3.32 5 4 5 C 4.33 8.96 4.66 12.92 5 17 C 2.70053583 13.55080374 2.19230965 10.8618978 1.375 6.8125 C 0.98441406 4.90404297 0.98441406 4.90404297 0.5859375 2.95703125 C 0.39257812 1.98121094 0.19921875 1.00539063 0 0 Z" stroke-linecap="round"></path>
</g>
		<g transform="matrix(1 0 0 1 30.5 30)">
<path style="stroke: none; stroke-width: 1; stroke-dasharray: none; stroke-linecap: butt; stroke-dashoffset: 0; stroke-linejoin: miter; stroke-miterlimit: 4; is-custom-font: none; font-file-url: none; fill: rgb(60,122,160); fill-rule: nonzero; opacity: 1;" transform=" translate(2, -5.5)" d="M 0 0 C 0.99 0.33 1.98 0.66 3 1 C 2.67 1.66 2.34 2.32 2 3 C 1.34 3 0.68 3 0 3 C -0.0825 3.5775 -0.165 4.155 -0.25 4.75 C -1.20531013 7.6159304 -2.78469173 8.9990764 -5 11 C -5.66 10.67 -6.32 10.34 -7 10 C -6.360625 9.236875 -5.72125 8.47375 -5.0625 7.6875 C -2.85767219 5.11753287 -2.85767219 5.11753287 -2 2 C -1.34 2 -0.68 2 0 2 C 0 1.34 0 0.68 0 0 Z" stroke-linecap="round"></path>
</g>
		<g transform="matrix(1 0 0 1 106 -49)">
<path style="stroke: none; stroke-width: 1; stroke-dasharray: none; stroke-linecap: butt; stroke-dashoffset: 0; stroke-linejoin: miter; stroke-miterlimit: 4; is-custom-font: none; font-file-url: none; fill: rgb(128,160,179); fill-rule: nonzero; opacity: 1;" transform=" translate(-3.5, -6.5)" d="M 0 0 C 3.93846154 3.32307692 3.93846154 3.32307692 4.25 6.75 C 4.1675 7.4925 4.085 8.235 4 9 C 4.66 9 5.32 9 6 9 C 6.33 10.32 6.66 11.64 7 13 C 6.34 13 5.68 13 5 13 C 3 10 3 10 3 7 C 2.34 7 1.68 7 1 7 C 0.67 4.69 0.34 2.38 0 0 Z" stroke-linecap="round"></path>
</g>
		<g transform="matrix(1 0 0 1 15 -116)">
<path style="stroke: none; stroke-width: 1; stroke-dasharray: none; stroke-linecap: butt; stroke-dashoffset: 0; stroke-linejoin: miter; stroke-miterlimit: 4; is-custom-font: none; font-file-url: none; fill: rgb(103,142,166); fill-rule: nonzero; opacity: 1;" transform=" translate(-8.5, -1.5)" d="M 0 0 C 6.09781001 -0.22084624 11.21642935 -0.01167675 17 2 C 17 2.33 17 2.66 17 3 C 10.90218999 3.22084624 5.78357065 3.01167675 0 1 C 0 0.67 0 0.34 0 0 Z" stroke-linecap="round"></path>
</g>
		<g transform="matrix(1 0 0 1 86.5 73)">
<path style="stroke: none; stroke-width: 1; stroke-dasharray: none; stroke-linecap: butt; stroke-dashoffset: 0; stroke-linejoin: miter; stroke-miterlimit: 4; is-custom-font: none; font-file-url: none; fill: rgb(78,133,166); fill-rule: nonzero; opacity: 1;" transform=" translate(3, -4.5)" d="M 0 0 C 0.33 1.32 0.66 2.64 1 4 C -1.97 6.475 -1.97 6.475 -5 9 C -5.66 8.67 -6.32 8.34 -7 8 C -4.79020692 5.18060883 -2.59937954 2.46941056 0 0 Z" stroke-linecap="round"></path>
</g>
		<g transform="matrix(1 0 0 1 -105.5 58)">
<path style="stroke: none; stroke-width: 1; stroke-dasharray: none; stroke-linecap: butt; stroke-dashoffset: 0; stroke-linejoin: miter; stroke-miterlimit: 4; is-custom-font: none; font-file-url: none; fill: rgb(145,170,184); fill-rule: nonzero; opacity: 1;" transform=" translate(-4, -7.5)" d="M 0 0 C 2.53833449 1.26916725 2.89400901 2.41624809 4.125 4.9375 C 4.47820312 5.64777344 4.83140625 6.35804688 5.1953125 7.08984375 C 6 9 6 9 6 11 C 6.66 11 7.32 11 8 11 C 7.67 12.32 7.34 13.64 7 15 C 3.47762012 10.26300637 1.65707832 5.64913063 0 0 Z" stroke-linecap="round"></path>
</g>
		<g transform="matrix(1 0 0 1 -24.5 78.5)">
<path style="stroke: none; stroke-width: 1; stroke-dasharray: none; stroke-linecap: butt; stroke-dashoffset: 0; stroke-linejoin: miter; stroke-miterlimit: 4; is-custom-font: none; font-file-url: none; fill: rgb(125,158,178); fill-rule: nonzero; opacity: 1;" transform=" translate(3, -4)" d="M 0 0 C 0.66 0.33 1.32 0.66 2 1 C -2.30769231 6.78461538 -2.30769231 6.78461538 -5.8125 7.875 C -6.8953125 7.936875 -6.8953125 7.936875 -8 8 C -8 7.34 -8 6.68 -8 6 C -6.25 4.4921875 -6.25 4.4921875 -4 2.875 C -3.2575 2.33617187 -2.515 1.79734375 -1.75 1.2421875 C -1.1725 0.83226562 -0.595 0.42234375 0 0 Z" stroke-linecap="round"></path>
</g>
		<g transform="matrix(1 0 0 1 5.5 -14.6805)">
<path style="stroke: none; stroke-width: 1; stroke-dasharray: none; stroke-linecap: butt; stroke-dashoffset: 0; stroke-linejoin: miter; stroke-miterlimit: 4; is-custom-font: none; font-file-url: none; fill: rgb(113,149,170); fill-rule: nonzero; opacity: 1;" transform=" translate(-7, -1.8195)" d="M 0 0 C 5.42039575 -0.40652968 9.07015675 0.96006486 14 3 C 10.08263419 4.1700097 7.02040985 3.69584017 3 3 C 3 2.34 3 1.68 3 1 C 2.01 0.67 1.02 0.34 0 0 Z" stroke-linecap="round"></path>
</g>
		<g transform="matrix(1 0 0 1 -41.5 -88.5)">
<path style="stroke: none; stroke-width: 1; stroke-dasharray: none; stroke-linecap: butt; stroke-dashoffset: 0; stroke-linejoin: miter; stroke-miterlimit: 4; is-custom-font: none; font-file-url: none; fill: rgb(117,153,174); fill-rule: nonzero; opacity: 1;" transform=" translate(-7, -3)" d="M 0 0 C 5.75 0.875 5.75 0.875 8 2 C 8 2.66 8 3.32 8 4 C 9.65 4 11.3 4 13 4 C 13.33 4.66 13.66 5.32 14 6 C 8.03790777 5.58882123 4.68411993 4.74729595 0 1 C 0 0.67 0 0.34 0 0 Z" stroke-linecap="round"></path>
</g>
		<g transform="matrix(1 0 0 1 19 -10.9464)">
<path style="stroke: none; stroke-width: 1; stroke-dasharray: none; stroke-linecap: butt; stroke-dashoffset: 0; stroke-linejoin: miter; stroke-miterlimit: 4; is-custom-font: none; font-file-url: none; fill: rgb(195,204,209); fill-rule: nonzero; opacity: 1;" transform=" translate(-6.5, -2.5536)" d="M 0 0 C 4.84659077 0.59104765 8.60748167 1.97944157 13 4 C 13 4.33 13 4.66 13 5 C 7.36529617 5.5497272 4.61012242 3.95047835 0 1 C 0 0.67 0 0.34 0 0 Z" stroke-linecap="round"></path>
</g>
		<g transform="matrix(1 0 0 1 11.5 63.5)">
<path style="stroke: none; stroke-width: 1; stroke-dasharray: none; stroke-linecap: butt; stroke-dashoffset: 0; stroke-linejoin: miter; stroke-miterlimit: 4; is-custom-font: none; font-file-url: none; fill: rgb(69,125,158); fill-rule: nonzero; opacity: 1;" transform=" translate(-2, -5)" d="M 0 0 C 1.32 0.99 2.64 1.98 4 3 C 3.125 7.75 3.125 7.75 2 10 C 1.34 9.67 0.68 9.34 0 9 C 0 6.03 0 3.06 0 0 Z" stroke-linecap="round"></path>
</g>
		<g transform="matrix(1 0 0 1 -54.5 118.5)">
<path style="stroke: none; stroke-width: 1; stroke-dasharray: none; stroke-linecap: butt; stroke-dashoffset: 0; stroke-linejoin: miter; stroke-miterlimit: 4; is-custom-font: none; font-file-url: none; fill: rgb(186,198,206); fill-rule: nonzero; opacity: 1;" transform=" translate(-2, -2)" d="M 0 0 C 1.32 0 2.64 0 4 0 C 4 0.66 4 1.32 4 2 C 4.99 2.33 5.98 2.66 7 3 C 3.7 3.33 0.4 3.66 -3 4 C -2.01 2.68 -1.02 1.36 0 0 Z" stroke-linecap="round"></path>
</g>
		<g transform="matrix(1 0 0 1 37.5 -84.4219)">
<path style="stroke: none; stroke-width: 1; stroke-dasharray: none; stroke-linecap: butt; stroke-dashoffset: 0; stroke-linejoin: miter; stroke-miterlimit: 4; is-custom-font: none; font-file-url: none; fill: rgb(130,160,178); fill-rule: nonzero; opacity: 1;" transform=" translate(6, -2.0781)" d="M 0 0 C -3.85477249 2.56984833 -7.52040582 3.85814266 -12 5 C -11.34 4.01 -10.68 3.02 -10 2 C -9.01 2 -8.02 2 -7 2 C -7 1.34 -7 0.68 -7 0 C -2.25 -1.125 -2.25 -1.125 0 0 Z" stroke-linecap="round"></path>
</g>
		<g transform="matrix(1 0 0 1 -83 -90)">
<path style="stroke: none; stroke-width: 1; stroke-dasharray: none; stroke-linecap: butt; stroke-dashoffset: 0; stroke-linejoin: miter; stroke-miterlimit: 4; is-custom-font: none; font-file-url: none; fill: rgb(87,136,165); fill-rule: nonzero; opacity: 1;" transform=" translate(1.5, -3.5)" d="M 0 0 C 0.66 0 1.32 0 2 0 C 1.67 1.32 1.34 2.64 1 4 C -0.32 4.33 -1.64 4.66 -3 5 C -3 5.66 -3 6.32 -3 7 C -3.66 6.67 -4.32 6.34 -5 6 C -3.38405168 3.95880212 -1.7143618 1.95927063 0 0 Z" stroke-linecap="round"></path>
</g>
		<g transform="matrix(1 0 0 1 -111.5 -36.5)">
<path style="stroke: none; stroke-width: 1; stroke-dasharray: none; stroke-linecap: butt; stroke-dashoffset: 0; stroke-linejoin: miter; stroke-miterlimit: 4; is-custom-font: none; font-file-url: none; fill: rgb(111,149,172); fill-rule: nonzero; opacity: 1;" transform=" translate(0, -4)" d="M 0 0 C 0.66 0 1.32 0 2 0 C 1.6875 2.875 1.6875 2.875 1 6 C 0.01 6.66 -0.98 7.32 -2 8 C -1.125 1.125 -1.125 1.125 0 0 Z" stroke-linecap="round"></path>
</g>
		<g transform="matrix(1 0 0 1 58.5 -102)">
<path style="stroke: none; stroke-width: 1; stroke-dasharray: none; stroke-linecap: butt; stroke-dashoffset: 0; stroke-linejoin: miter; stroke-miterlimit: 4; is-custom-font: none; font-file-url: none; fill: rgb(149,173,187); fill-rule: nonzero; opacity: 1;" transform=" translate(-5, -2.5)" d="M 0 0 C 3.59391114 1.33488128 6.75490696 2.96022723 10 5 C 6.38970831 5 3.44193324 4.03907418 0 3 C 0 2.01 0 1.02 0 0 Z" stroke-linecap="round"></path>
</g>
		<g transform="matrix(1 0 0 1 29 -104.5)">
<path style="stroke: none; stroke-width: 1; stroke-dasharray: none; stroke-linecap: butt; stroke-dashoffset: 0; stroke-linejoin: miter; stroke-miterlimit: 4; is-custom-font: none; font-file-url: none; fill: rgb(96,138,163); fill-rule: nonzero; opacity: 1;" transform=" translate(-5.5, -2)" d="M 0 0 C 1.45945288 0.08708669 2.91765868 0.19526907 4.375 0.3125 C 5.59316406 0.39951172 5.59316406 0.39951172 6.8359375 0.48828125 C 9 1 9 1 11 4 C 7.1936543 3.32829194 3.64793184 2.27253436 0 1 C 0 0.67 0 0.34 0 0 Z" stroke-linecap="round"></path>
</g>
</g>
</g>
<title>Title</title></svg>
